<?xml version="1.0" encoding="utf-8"?>
<!-- Generator: Adobe Illustrator 16.0.0, SVG Export Plug-In . SVG Version: 6.00 Build 0)  -->
<!DOCTYPE svg PUBLIC "-//W3C//DTD SVG 1.1//EN" "http://www.w3.org/Graphics/SVG/1.1/DTD/svg11.dtd">
<svg version="1.1" id="レイヤー_1" xmlns="http://www.w3.org/2000/svg" xmlns:xlink="http://www.w3.org/1999/xlink" x="0px"
	 y="0px" width="680px" height="108.775px" viewBox="0 0 680 108.775" enable-background="new 0 0 680 108.775"
	 xml:space="preserve">
<g>
	<g>
		<g>
			<path fill="#231815" d="M33.728,108.325c-10.239,0-16.292-5.188-16.777-14.289C6.949,93.895,0,84.719,0,76.478
				c0-6.003,2.191-8.605,8.697-16.33c1.086-1.308,2.078-2.675,2.978-4.055C3.724,53.882,0.752,46.995,0.752,40.947
				c0-4.64,1.263-8.436,3.604-11.206c-1.523-2.528-2.382-5.597-2.382-9.003c0-8.763,5.768-15.031,14.373-15.65
				c3.102-0.304,6.44-0.607,9.64-0.897c5.485-0.498,12.311-1.118,13.832-1.413c6.226-1.167,7.454-1.386,9.512-1.386
				c3.953,0,7.187,1.212,9.674,3.166c3.471-3.21,7.989-4.106,11.945-4.106c10.395,0,17.655,6.294,17.655,15.306
				c0,1.932-1.358,10.753-3.904,22.893c11.009,0.645,14.004,9.8,15.64,14.801l0.071,0.218c3.854,12.298,7.932,31.655,7.932,37.66
				c0,3.289-0.8,8.01-4.612,11.821l-0.327,0.311c-4.573,4.137-10.745,4.584-13.186,4.584c-4.79,0-10.371-1.373-13.786-6.773
				c-10.617,2.043-22.366,3.859-26.82,3.859c-1.787,0-3.357-0.228-4.728-0.596C42.133,106.964,38.314,108.325,33.728,108.325z"/>
			<path fill="#231815" d="M33.728,108.325c-10.239,0-16.292-5.188-16.777-14.289C6.949,93.895,0,84.719,0,76.478
				c0-6.003,2.191-8.605,8.697-16.33c1.086-1.308,2.078-2.675,2.978-4.055C3.724,53.882,0.752,46.995,0.752,40.947
				c0-4.64,1.263-8.436,3.604-11.206c-1.523-2.528-2.382-5.597-2.382-9.003c0-8.763,5.768-15.031,14.373-15.65
				c3.102-0.304,6.44-0.607,9.64-0.897c5.485-0.498,12.311-1.118,13.832-1.413c6.226-1.167,7.454-1.386,9.512-1.386
				c3.953,0,7.187,1.212,9.674,3.166c3.471-3.21,7.989-4.106,11.945-4.106c10.395,0,17.655,6.294,17.655,15.306
				c0,1.932-1.358,10.753-3.904,22.893c11.009,0.645,14.004,9.8,15.64,14.801l0.071,0.218c3.854,12.298,7.932,31.655,7.932,37.66
				c0,3.289-0.8,8.01-4.612,11.821l-0.327,0.311c-4.573,4.137-10.745,4.584-13.186,4.584c-4.79,0-10.371-1.373-13.786-6.773
				c-10.617,2.043-22.366,3.859-26.82,3.859c-1.787,0-3.357-0.228-4.728-0.596C42.133,106.964,38.314,108.325,33.728,108.325z"/>
		</g>
		<g>
			<path fill="#231815" d="M151.791,104.096c-7.822,0-13.072-4.2-15.578-9.67c-3.443,1.5-7.172,2.244-11.21,2.244
				c-17.194,0-28.746-14.839-28.746-36.924c0-37.123,28.349-54.031,54.688-54.031c8.313,0,24.022,1.646,35.844,12.664
				c12.601,11.869,13.957,29.069,13.957,35.915c0,16.047-5.767,29.522-16.239,37.944
				C173.015,101.609,158.077,104.096,151.791,104.096z M163.904,44.976c-1.529,7.285-3.736,15.646-6.665,23.214
				c4.923-1.746,8.196-5.358,8.196-14.835C165.436,50.012,164.907,47.19,163.904,44.976z"/>
			<path fill="#231815" d="M151.791,104.096c-7.822,0-13.072-4.2-15.578-9.67c-3.443,1.5-7.172,2.244-11.21,2.244
				c-17.194,0-28.746-14.839-28.746-36.924c0-37.123,28.349-54.031,54.688-54.031c8.313,0,24.022,1.646,35.844,12.664
				c12.601,11.869,13.957,29.069,13.957,35.915c0,16.047-5.767,29.522-16.239,37.944
				C173.015,101.609,158.077,104.096,151.791,104.096z M163.904,44.976c-1.529,7.285-3.736,15.646-6.665,23.214
				c4.923-1.746,8.196-5.358,8.196-14.835C165.436,50.012,164.907,47.19,163.904,44.976z"/>
		</g>
	</g>
	<g>
		<g>
			<path fill="#E60012" d="M33.728,104.616c-8.57,0-13.1-4.075-13.1-11.784v-2.989c-1.043,0.315-2.183,0.486-3.443,0.486
				c-7.713,0-13.476-7.313-13.476-13.852c0-4.649,1.502-6.433,7.825-13.94c2.519-3.032,4.552-6.331,6.155-9.43h-0.316
				c-11.98,0-12.912-9.308-12.912-12.16c0-5.028,1.722-8.673,4.972-10.74c-2.359-2.226-3.75-5.53-3.75-9.469
				c0-6.812,4.304-11.493,10.975-11.954c3.107-0.305,6.456-0.608,9.664-0.9c6.144-0.558,12.498-1.135,14.202-1.465
				c6.149-1.153,7.139-1.318,8.807-1.318c4.718,0,7.975,2.153,9.904,5.146C60.96,7.103,64.297,4.16,70.95,4.16
				c8.211,0,13.946,4.769,13.946,11.597c0,1.687-1.619,12.292-4.836,26.925c1.109-0.238,2.252-0.359,3.392-0.359
				c9.348,0,11.669,7.099,13.365,12.281l0.036,0.111c4.018,12.817,7.782,31.466,7.782,36.613c0,3.765-1.186,6.859-3.525,9.198
				l-0.192,0.184c-3.617,3.271-8.686,3.625-10.698,3.625c-7.193,0-10.352-3.672-11.796-7.234c-11.068,2.209-24.311,4.32-28.809,4.32
				c-2.155,0-4.105-0.412-5.769-1.206C41.784,103.048,38.307,104.616,33.728,104.616z M31.269,93.783
				c0.384,0.103,1.138,0.235,2.459,0.235c0.9,0,1.383-0.118,1.599-0.192c0.058-0.301,0.058-0.807,0.058-0.994V53.958l9.554,12.876
				c0.685,0.924,1.113,1.424,1.369,1.693c0.53-0.407,1.484-1.782,1.484-3.611c0-0.328-0.022-0.493-0.034-0.558
				c-0.017-0.011-0.08-0.087-0.199-0.207c-6.024-5.825-6.968-6.831-11.304-13.435l-3.719-5.663L30.79,49.68
				c-1.975,5.233-5.509,12.893-11.127,19.656c-2.471,2.935-5.002,5.939-5.356,6.772c0.007,0.001,0,0.118,0,0.369
				c0,0.943,1.246,3.254,2.879,3.254c0.412,0,1.101,0,4.141-5.319l9.899-17.323v35.743C31.225,93.274,31.245,93.579,31.269,93.783z
				 M87.051,84.431l0.633,5.858c0.373,3.448,0.373,3.448,2.534,3.448c1.501,0,2.912-0.399,3.479-0.799
				c0.226-0.306,0.34-0.846,0.34-1.61c0-3.436-3.295-20.677-7.277-33.381l-0.017-0.049c-1.628-4.979-1.786-4.979-3.293-4.979
				c-0.895,0-2.283,0.417-2.586,0.774c0.004,0.005-0.007,0.062-0.01,0.167c0.13,1.56,1.802,7.776,2.435,10.13
				c0.33,1.228,0.591,2.204,0.71,2.705l0.042,0.188l0.366,1.813c0.436,2.143,0.978,4.81,1.351,6.975l0.864,5.014l-4.975,1.066
				c-6.518,1.397-9.933,2.018-16.118,2.716l-8.088,0.914l2.438-7.766C69.27,47.709,74.071,18.846,74.297,15.69
				c-0.004-0.105-0.019-0.148-0.019-0.149c-0.15-0.179-1.264-0.783-3.329-0.783c-2.655,0-2.682,0.188-3.118,3.326
				c-3.158,25.608-7.286,45.951-12.98,63.939l-1.077,3.402l-3.557,0.281c-0.523,0.041-1.832,0.145-2.377,0.337
				c-0.064,0.205-0.167,0.666-0.167,1.524c0,1.268,0.401,2.715,0.732,3.066l0.043,0.038c0.129,0.053,0.506,0.15,1.163,0.15
				c3.595,0,18.919-2.373,31.68-5.143L87.051,84.431z M73.576,68.694c-0.381,1.361-0.771,2.73-1.172,4.105
				c0.634-0.112,1.278-0.232,1.949-0.362c-0.113-0.563-0.225-1.112-0.33-1.629l-0.352-1.737
				C73.646,68.964,73.613,68.838,73.576,68.694z M51.2,52.878c0.076,0.077,0.152,0.155,0.23,0.234
				c0.02-0.095,0.04-0.188,0.059-0.283C51.394,52.847,51.297,52.862,51.2,52.878z M30.865,42.51h17.244
				c1.38,0,1.984-0.19,2.178-0.271c0.072-0.18,0.231-0.707,0.231-1.854c0-0.948-0.19-1.262-0.192-1.265
				c-0.071-0.048-0.521-0.299-2.217-0.299H35.385V21.151l4.625-0.593c3.626-0.464,8.257-1.175,10.205-1.649
				c0.49-0.145,0.585-0.233,0.585-0.99c-0.009-2.221-0.959-2.221-1.469-2.221c-0.643,0-1.35,0.104-6.825,1.131
				c-2.09,0.404-7.148,0.875-15.226,1.608c-3.212,0.292-6.566,0.597-9.672,0.901l-0.188,0.015c-0.556,0.035-0.898,0.183-0.969,0.245
				c-0.038,0.056-0.172,0.408-0.172,1.14c0,1.938,0.623,1.938,1.282,1.938c1.105,0,6.066-0.35,7.809-0.534l5.854-0.617V38.82H17.373
				c-1.266,0-1.877,0.16-2.11,0.245c-0.073,0.22-0.205,0.771-0.205,1.882c0,0.732,0.105,1.146,0.168,1.305
				c0.171,0.081,0.71,0.258,2.146,0.258H30.865z M53.472,28.992c0.763,0.249,1.451,0.552,2.071,0.896
				c0.095-0.643,0.189-1.286,0.283-1.937C55.1,28.37,54.314,28.72,53.472,28.992z"/>
			<path fill="#E60012" d="M33.728,104.616c-8.57,0-13.1-4.075-13.1-11.784v-2.989c-1.043,0.315-2.183,0.486-3.443,0.486
				c-7.713,0-13.476-7.313-13.476-13.852c0-4.649,1.502-6.433,7.825-13.94c2.519-3.032,4.552-6.331,6.155-9.43h-0.316
				c-11.98,0-12.912-9.308-12.912-12.16c0-5.028,1.722-8.673,4.972-10.74c-2.359-2.226-3.75-5.53-3.75-9.469
				c0-6.812,4.304-11.493,10.975-11.954c3.107-0.305,6.456-0.608,9.664-0.9c6.144-0.558,12.498-1.135,14.202-1.465
				c6.149-1.153,7.139-1.318,8.807-1.318c4.718,0,7.975,2.153,9.904,5.146C60.96,7.103,64.297,4.16,70.95,4.16
				c8.211,0,13.946,4.769,13.946,11.597c0,1.687-1.619,12.292-4.836,26.925c1.109-0.238,2.252-0.359,3.392-0.359
				c9.348,0,11.669,7.099,13.365,12.281l0.036,0.111c4.018,12.817,7.782,31.466,7.782,36.613c0,3.765-1.186,6.859-3.525,9.198
				l-0.192,0.184c-3.617,3.271-8.686,3.625-10.698,3.625c-7.193,0-10.352-3.672-11.796-7.234c-11.068,2.209-24.311,4.32-28.809,4.32
				c-2.155,0-4.105-0.412-5.769-1.206C41.784,103.048,38.307,104.616,33.728,104.616z M31.269,93.783
				c0.384,0.103,1.138,0.235,2.459,0.235c0.9,0,1.383-0.118,1.599-0.192c0.058-0.301,0.058-0.807,0.058-0.994V53.958l9.554,12.876
				c0.685,0.924,1.113,1.424,1.369,1.693c0.53-0.407,1.484-1.782,1.484-3.611c0-0.328-0.022-0.493-0.034-0.558
				c-0.017-0.011-0.08-0.087-0.199-0.207c-6.024-5.825-6.968-6.831-11.304-13.435l-3.719-5.663L30.79,49.68
				c-1.975,5.233-5.509,12.893-11.127,19.656c-2.471,2.935-5.002,5.939-5.356,6.772c0.007,0.001,0,0.118,0,0.369
				c0,0.943,1.246,3.254,2.879,3.254c0.412,0,1.101,0,4.141-5.319l9.899-17.323v35.743C31.225,93.274,31.245,93.579,31.269,93.783z
				 M87.051,84.431l0.633,5.858c0.373,3.448,0.373,3.448,2.534,3.448c1.501,0,2.912-0.399,3.479-0.799
				c0.226-0.306,0.34-0.846,0.34-1.61c0-3.436-3.295-20.677-7.277-33.381l-0.017-0.049c-1.628-4.979-1.786-4.979-3.293-4.979
				c-0.895,0-2.283,0.417-2.586,0.774c0.004,0.005-0.007,0.062-0.01,0.167c0.13,1.56,1.802,7.776,2.435,10.13
				c0.33,1.228,0.591,2.204,0.71,2.705l0.042,0.188l0.366,1.813c0.436,2.143,0.978,4.81,1.351,6.975l0.864,5.014l-4.975,1.066
				c-6.518,1.397-9.933,2.018-16.118,2.716l-8.088,0.914l2.438-7.766C69.27,47.709,74.071,18.846,74.297,15.69
				c-0.004-0.105-0.019-0.148-0.019-0.149c-0.15-0.179-1.264-0.783-3.329-0.783c-2.655,0-2.682,0.188-3.118,3.326
				c-3.158,25.608-7.286,45.951-12.98,63.939l-1.077,3.402l-3.557,0.281c-0.523,0.041-1.832,0.145-2.377,0.337
				c-0.064,0.205-0.167,0.666-0.167,1.524c0,1.268,0.401,2.715,0.732,3.066l0.043,0.038c0.129,0.053,0.506,0.15,1.163,0.15
				c3.595,0,18.919-2.373,31.68-5.143L87.051,84.431z M73.576,68.694c-0.381,1.361-0.771,2.73-1.172,4.105
				c0.634-0.112,1.278-0.232,1.949-0.362c-0.113-0.563-0.225-1.112-0.33-1.629l-0.352-1.737
				C73.646,68.964,73.613,68.838,73.576,68.694z M51.2,52.878c0.076,0.077,0.152,0.155,0.23,0.234
				c0.02-0.095,0.04-0.188,0.059-0.283C51.394,52.847,51.297,52.862,51.2,52.878z M30.865,42.51h17.244
				c1.38,0,1.984-0.19,2.178-0.271c0.072-0.18,0.231-0.707,0.231-1.854c0-0.948-0.19-1.262-0.192-1.265
				c-0.071-0.048-0.521-0.299-2.217-0.299H35.385V21.151l4.625-0.593c3.626-0.464,8.257-1.175,10.205-1.649
				c0.49-0.145,0.585-0.233,0.585-0.99c-0.009-2.221-0.959-2.221-1.469-2.221c-0.643,0-1.35,0.104-6.825,1.131
				c-2.09,0.404-7.148,0.875-15.226,1.608c-3.212,0.292-6.566,0.597-9.672,0.901l-0.188,0.015c-0.556,0.035-0.898,0.183-0.969,0.245
				c-0.038,0.056-0.172,0.408-0.172,1.14c0,1.938,0.623,1.938,1.282,1.938c1.105,0,6.066-0.35,7.809-0.534l5.854-0.617V38.82H17.373
				c-1.266,0-1.877,0.16-2.11,0.245c-0.073,0.22-0.205,0.771-0.205,1.882c0,0.732,0.105,1.146,0.168,1.305
				c0.171,0.081,0.71,0.258,2.146,0.258H30.865z M53.472,28.992c0.763,0.249,1.451,0.552,2.071,0.896
				c0.095-0.643,0.189-1.286,0.283-1.937C55.1,28.37,54.314,28.72,53.472,28.992z"/>
		</g>
		<g>
			<path fill="#E60012" d="M151.791,100.387c-8.169,0-12.44-5.513-13.373-11.365c-3.962,2.657-8.381,3.939-13.416,3.939
				c-17.295,0-25.037-16.683-25.037-33.215c0-34.574,26.426-50.322,50.979-50.322c6.253,0,22.017,1.138,33.315,11.668
				c8.008,7.543,12.777,19.948,12.777,33.202c0,14.901-5.275,27.35-14.855,35.054C171.083,98.399,156.479,100.387,151.791,100.387z
				 M149.048,84.773c0.006,0-0.231,0.433-0.231,1.761c0,3.255,1.861,3.255,2.973,3.255c4.268,0,15.683-2.12,23.722-8.677
				c9.511-7.648,10.927-20.084,10.927-26.818c0-10.389-3.524-19.91-9.426-25.47c-8.523-7.943-21.071-8.803-26.069-8.803
				c-20.101,0-40.383,12.283-40.383,39.725c0,3.777,0.696,22.617,14.44,22.617c5.588,0,9.739-2.732,13.878-9.139
				c6.277-9.498,11.427-29.456,13.101-43.435l0.613-5.124l5.138,0.479c10.153,0.944,22.009,8.898,22.009,28.21
				c0,26.287-19.794,29.333-26.299,30.334C152.016,83.922,149.545,84.325,149.048,84.773L149.048,84.773z M161.61,37.174
				c-1.832,10.887-5.481,25.574-10.668,36.188c0.288-0.049,0.568-0.095,0.838-0.139c8.811-1.356,17.364-4,17.364-19.868
				C169.145,43.471,165.194,39.103,161.61,37.174z M126.036,75.196c-5.07,0-10.186-4.72-10.186-15.262
				c0-17.065,8.872-29.858,23.732-34.223l7.884-2.314l-1.144,8.136c-2.567,18.256-7.65,30.663-9.146,34.03l-0.067,0.146
				C135.741,68.549,132.542,75.196,126.036,75.196z M133.958,40.533c-4.899,4.356-7.511,10.985-7.511,19.401
				c0,1.222,0.094,2.18,0.225,2.92c0.261-0.474,0.545-1.03,0.854-1.668C128.604,58.745,131.577,51.471,133.958,40.533z"/>
			<path fill="#E60012" d="M151.791,100.387c-8.169,0-12.44-5.513-13.373-11.365c-3.962,2.657-8.381,3.939-13.416,3.939
				c-17.295,0-25.037-16.683-25.037-33.215c0-34.574,26.426-50.322,50.979-50.322c6.253,0,22.017,1.138,33.315,11.668
				c8.008,7.543,12.777,19.948,12.777,33.202c0,14.901-5.275,27.35-14.855,35.054C171.083,98.399,156.479,100.387,151.791,100.387z
				 M149.048,84.773c0.006,0-0.231,0.433-0.231,1.761c0,3.255,1.861,3.255,2.973,3.255c4.268,0,15.683-2.12,23.722-8.677
				c9.511-7.648,10.927-20.084,10.927-26.818c0-10.389-3.524-19.91-9.426-25.47c-8.523-7.943-21.071-8.803-26.069-8.803
				c-20.101,0-40.383,12.283-40.383,39.725c0,3.777,0.696,22.617,14.44,22.617c5.588,0,9.739-2.732,13.878-9.139
				c6.277-9.498,11.427-29.456,13.101-43.435l0.613-5.124l5.138,0.479c10.153,0.944,22.009,8.898,22.009,28.21
				c0,26.287-19.794,29.333-26.299,30.334C152.016,83.922,149.545,84.325,149.048,84.773L149.048,84.773z M161.61,37.174
				c-1.832,10.887-5.481,25.574-10.668,36.188c0.288-0.049,0.568-0.095,0.838-0.139c8.811-1.356,17.364-4,17.364-19.868
				C169.145,43.471,165.194,39.103,161.61,37.174z M126.036,75.196c-5.07,0-10.186-4.72-10.186-15.262
				c0-17.065,8.872-29.858,23.732-34.223l7.884-2.314l-1.144,8.136c-2.567,18.256-7.65,30.663-9.146,34.03l-0.067,0.146
				C135.741,68.549,132.542,75.196,126.036,75.196z M133.958,40.533c-4.899,4.356-7.511,10.985-7.511,19.401
				c0,1.222,0.094,2.18,0.225,2.92c0.261-0.474,0.545-1.03,0.854-1.668C128.604,58.745,131.577,51.471,133.958,40.533z"/>
		</g>
	</g>
	<g>
		<g>
			<path fill="#FFFFFF" d="M40.683,33.521h7.426c2.256,0,7.708,0.188,7.708,6.862c0,5.451-2.538,7.425-7.708,7.425h-7.426
				c4.136,6.298,4.888,7.05,10.622,12.596c1.316,1.315,1.786,2.538,1.786,4.512c0,4.794-3.29,9.023-6.955,9.023
				c-2.068,0-3.29-1.034-5.452-3.948v22.841c0,1.88-0.094,6.485-6.955,6.485c-6.768,0-7.802-2.726-7.802-6.485V77.041
				c-3.384,5.922-5.264,7.989-8.741,7.989c-4.888,0-8.178-4.981-8.178-8.553c0-2.633,0.564-3.385,6.58-10.527
				c5.076-6.11,8.366-13.16,10.246-18.142h-8.46c-3.102,0-7.613-0.563-7.613-6.861c0-5.075,1.974-7.426,7.613-7.426h8.554v-6.109
				c-1.786,0.188-6.956,0.563-8.365,0.563c-4.042,0-6.58-2.819-6.58-7.237c0-5.921,4.606-6.579,6.11-6.673
				c9.587-0.94,21.525-1.881,24.438-2.444c6.016-1.128,6.673-1.222,7.801-1.222c6.674,0,6.768,6.955,6.768,7.52
				c0,3.947-2.538,5.545-4.512,6.109c-2.256,0.564-7.237,1.316-10.903,1.786V33.521z M80.537,76.571
				c-0.47-2.727-1.222-6.298-1.691-8.647c-0.47-1.974-3.29-11.749-3.29-14.005c0-5.452,6.109-6.298,7.896-6.298
				c5.546,0,6.674,3.571,8.365,8.741c3.948,12.596,7.52,30.643,7.52,34.966c0,3.29-1.315,4.794-1.974,5.452
				c-1.974,1.785-5.17,2.256-7.144,2.256c-6.956,0-7.426-4.7-7.802-8.178c-12.125,2.632-28.386,5.264-32.804,5.264
				c-1.504,0-3.384-0.282-4.7-1.504c-2.162-1.88-2.538-5.546-2.538-7.05c0-6.392,3.854-6.861,7.425-7.144
				c6.486-20.49,10.151-41.733,12.783-63.07c0.47-3.384,1.222-7.896,8.366-7.896c4.136,0,8.647,1.692,8.647,6.298
				c0,2.35-4.982,32.616-14.663,63.446C70.761,78.545,73.958,77.981,80.537,76.571z"/>
		</g>
		<g>
			<path fill="#FFFFFF" d="M143.331,76.101c-4.981,7.708-10.621,11.562-18.329,11.562c-14.287,0-19.739-14.475-19.739-27.916
				c0-32.052,24.25-45.023,45.681-45.023c6.392,0,20.021,1.222,29.702,10.245c8.083,7.614,11.091,19.551,11.091,29.326
				c0,11.75-3.76,23.593-12.877,30.925c-9.682,7.896-22.653,9.869-27.07,9.869c-7.99,0-8.271-7.331-8.271-8.554
				c0-6.579,3.947-7.237,9.117-8.083c7.332-1.128,21.807-3.76,21.807-25.097c0-15.885-9.117-22.183-17.201-22.935
				C155.644,43.767,150.474,65.292,143.331,76.101z M121.148,59.935c0,6.955,2.538,9.963,4.888,9.963
				c3.102,0,5.076-3.947,6.298-6.485c1.128-2.538,6.204-14.569,8.741-32.616C129.232,34.273,121.148,44.237,121.148,59.935z"/>
		</g>
	</g>
</g>
<g>
	<g>
		<g>
			<g>
				<path fill="none" stroke="#231815" stroke-width="14.7197" d="M233.754,36.037c-2.257,0-3.631-0.736-3.926-3.092
					c-0.344,1.865-0.687,3.632-1.57,6.331c3.141,2.158,4.27,3.386,4.27,5.201c0,2.012-1.718,4.318-4.073,4.318
					c-1.325,0-1.865-0.54-3.681-2.061c-2.306,3.729-6.575,8.538-9.471,8.538c-1.767,0-4.024-1.914-4.024-4.171
					c0-1.325,0.589-2.062,1.62-2.994c4.367-3.926,5.152-5.104,5.889-6.183c-1.473-1.079-2.062-1.423-4.171-2.649
					c-1.227-0.736-2.699-1.57-2.699-3.73c0-0.539,0.098-0.834,0.785-3.336c0.834-3.092,1.521-6.821,1.668-7.999
					c-0.981-0.099-3.435-0.295-3.435-4.073s3.042-3.778,4.318-3.778c0.393-4.368,0.441-4.662,0.589-5.496
					c0.441-2.208,2.208-2.503,3.778-2.503c1.129,0,4.22,0.196,4.22,3.337c0,0.834-0.098,1.767-0.54,4.662H226
					c2.797,0,5.054,0.589,5.054,4.858c0,2.158-0.441,5.839-0.736,8.097c0.834-1.276,2.012-1.521,3.435-1.521h6.036v-2.355
					c0-1.815,0.49-2.993,2.699-3.239c0.785-0.785,2.797-2.797,2.797-3.582c0-0.441-0.393-0.49-1.276-0.49h-8.833
					c-2.257,0-4.023-0.736-4.023-4.172c0-3.827,3.091-3.827,4.023-3.827h15.409c2.699,0,5.889,0.344,5.889,4.956
					c0,2.307-0.785,3.828-2.159,5.496c-1.767,2.159-3.926,3.975-6.184,5.595v1.619h5.595c2.649,0,4.269,0.933,4.269,4.367
					c0,3.877-3.19,3.877-4.269,3.877h-5.595v12.366c0,7.115-2.846,7.164-8.097,7.164c-6.134,0-9.226-0.049-9.226-4.809
					c0-1.865,0.785-2.896,1.325-3.436c0.687-0.687,1.521-0.834,2.846-0.834c0.442,0,2.748,0.196,3.239,0.196
					c0.589,0,1.57,0,1.57-1.619v-9.029H233.754z M222.075,24.211c-0.491,2.601-0.54,2.698-2.012,8.882
					c-0.049,0.147-0.196,0.638-0.196,0.834c0,0.344,0.344,0.54,0.638,0.688c0.294,0.146,0.393,0.196,1.325,0.736
					c0.933-2.994,1.816-7.459,1.816-10.502c0-0.441-0.246-0.638-0.687-0.638H222.075z"/>
				<path fill="none" stroke="#231815" stroke-width="14.7197" d="M233.754,36.037c-2.257,0-3.631-0.736-3.926-3.092
					c-0.344,1.865-0.687,3.632-1.57,6.331c3.141,2.158,4.27,3.386,4.27,5.201c0,2.012-1.718,4.318-4.073,4.318
					c-1.325,0-1.865-0.54-3.681-2.061c-2.306,3.729-6.575,8.538-9.471,8.538c-1.767,0-4.024-1.914-4.024-4.171
					c0-1.325,0.589-2.062,1.62-2.994c4.367-3.926,5.152-5.104,5.889-6.183c-1.473-1.079-2.062-1.423-4.171-2.649
					c-1.227-0.736-2.699-1.57-2.699-3.73c0-0.539,0.098-0.834,0.785-3.336c0.834-3.092,1.521-6.821,1.668-7.999
					c-0.981-0.099-3.435-0.295-3.435-4.073s3.042-3.778,4.318-3.778c0.393-4.368,0.441-4.662,0.589-5.496
					c0.441-2.208,2.208-2.503,3.778-2.503c1.129,0,4.22,0.196,4.22,3.337c0,0.834-0.098,1.767-0.54,4.662H226
					c2.797,0,5.054,0.589,5.054,4.858c0,2.158-0.441,5.839-0.736,8.097c0.834-1.276,2.012-1.521,3.435-1.521h6.036v-2.355
					c0-1.815,0.49-2.993,2.699-3.239c0.785-0.785,2.797-2.797,2.797-3.582c0-0.441-0.393-0.49-1.276-0.49h-8.833
					c-2.257,0-4.023-0.736-4.023-4.172c0-3.827,3.091-3.827,4.023-3.827h15.409c2.699,0,5.889,0.344,5.889,4.956
					c0,2.307-0.785,3.828-2.159,5.496c-1.767,2.159-3.926,3.975-6.184,5.595v1.619h5.595c2.649,0,4.269,0.933,4.269,4.367
					c0,3.877-3.19,3.877-4.269,3.877h-5.595v12.366c0,7.115-2.846,7.164-8.097,7.164c-6.134,0-9.226-0.049-9.226-4.809
					c0-1.865,0.785-2.896,1.325-3.436c0.687-0.687,1.521-0.834,2.846-0.834c0.442,0,2.748,0.196,3.239,0.196
					c0.589,0,1.57,0,1.57-1.619v-9.029H233.754z M222.075,24.211c-0.491,2.601-0.54,2.698-2.012,8.882
					c-0.049,0.147-0.196,0.638-0.196,0.834c0,0.344,0.344,0.54,0.638,0.688c0.294,0.146,0.393,0.196,1.325,0.736
					c0.933-2.994,1.816-7.459,1.816-10.502c0-0.441-0.246-0.638-0.687-0.638H222.075z"/>
			</g>
			<g>
				<path fill="none" stroke="#231815" stroke-width="14.7197" d="M293.221,13.12c0-3.141,3.631-3.631,4.858-3.631
					c3.092,0,3.533,1.57,4.564,5.152c2.502-0.147,3.337-0.196,6.379-0.589c0.785-0.099,2.012-0.245,2.748-0.245
					c0.981,0,3.582,0.049,3.582,3.68c0,0.54,0,2.553-2.306,3.239c-1.521,0.441-3.876,0.638-8.244,0.981
					c0.589,1.57,0.687,1.865,0.932,2.307c2.847-0.196,5.595-0.54,7.312-0.785c1.767-0.295,2.012-0.295,2.454-0.295
					c3.288,0,3.288,3.092,3.288,3.632c0,2.061-1.276,3.091-2.896,3.435c-1.767,0.393-6.183,0.785-6.478,0.834
					c0.147,0.295,1.57,2.503,2.404,3.436c1.325,1.521,1.963,2.307,1.963,3.828c0,2.453-2.061,4.269-4.367,4.269
					c-0.294,0-0.834-0.049-2.208-0.49c-3.484-1.178-6.527-2.159-11.876-2.159c-1.128,0-4.662,0-6.526,0.981
					c-0.589,0.294-1.718,1.03-1.718,2.159c0,2.993,6.625,3.189,9.422,3.189c2.748,0,6.331-0.196,11.532-1.374
					c2.503-0.54,2.993-0.687,3.631-0.687c2.159,0,3.583,1.717,3.583,4.072c0,3.189-2.159,3.729-3.681,4.172
					c-3.239,0.883-7.312,1.57-13.396,1.57c-7.459,0-19.875-0.59-19.875-10.158c0-8.098,8.735-10.158,16.243-10.158
					c4.368,0,5.84,0.344,7.018,0.638c-0.638-0.933-0.981-1.472-1.668-2.797c-11.139,0.441-12.366,0.491-15.311,0.491
					c-1.374,0-5.889,0-7.017-0.295c-0.688-0.196-1.963-0.981-1.963-3.288c0-3.141,2.159-3.483,3.778-3.483
					c0.981,0,5.251,0.098,6.085,0.098c3.778,0,7.606,0,11.385-0.245c-0.638-1.521-0.785-1.914-1.03-2.454
					c-7.214,0.196-7.41,0.196-10.109,0.196c-5.839,0-6.232-0.098-6.919-0.54c-1.178-0.735-1.423-2.109-1.423-3.091
					c0-3.632,2.355-3.632,5.005-3.632c1.374,0,7.312,0.147,8.539,0.099c1.03,0,1.668-0.05,2.649-0.099
					C293.417,14.544,293.221,13.856,293.221,13.12z"/>
				<path fill="none" stroke="#231815" stroke-width="14.7197" d="M293.221,13.12c0-3.141,3.631-3.631,4.858-3.631
					c3.092,0,3.533,1.57,4.564,5.152c2.502-0.147,3.337-0.196,6.379-0.589c0.785-0.099,2.012-0.245,2.748-0.245
					c0.981,0,3.582,0.049,3.582,3.68c0,0.54,0,2.553-2.306,3.239c-1.521,0.441-3.876,0.638-8.244,0.981
					c0.589,1.57,0.687,1.865,0.932,2.307c2.847-0.196,5.595-0.54,7.312-0.785c1.767-0.295,2.012-0.295,2.454-0.295
					c3.288,0,3.288,3.092,3.288,3.632c0,2.061-1.276,3.091-2.896,3.435c-1.767,0.393-6.183,0.785-6.478,0.834
					c0.147,0.295,1.57,2.503,2.404,3.436c1.325,1.521,1.963,2.307,1.963,3.828c0,2.453-2.061,4.269-4.367,4.269
					c-0.294,0-0.834-0.049-2.208-0.49c-3.484-1.178-6.527-2.159-11.876-2.159c-1.128,0-4.662,0-6.526,0.981
					c-0.589,0.294-1.718,1.03-1.718,2.159c0,2.993,6.625,3.189,9.422,3.189c2.748,0,6.331-0.196,11.532-1.374
					c2.503-0.54,2.993-0.687,3.631-0.687c2.159,0,3.583,1.717,3.583,4.072c0,3.189-2.159,3.729-3.681,4.172
					c-3.239,0.883-7.312,1.57-13.396,1.57c-7.459,0-19.875-0.59-19.875-10.158c0-8.098,8.735-10.158,16.243-10.158
					c4.368,0,5.84,0.344,7.018,0.638c-0.638-0.933-0.981-1.472-1.668-2.797c-11.139,0.441-12.366,0.491-15.311,0.491
					c-1.374,0-5.889,0-7.017-0.295c-0.688-0.196-1.963-0.981-1.963-3.288c0-3.141,2.159-3.483,3.778-3.483
					c0.981,0,5.251,0.098,6.085,0.098c3.778,0,7.606,0,11.385-0.245c-0.638-1.521-0.785-1.914-1.03-2.454
					c-7.214,0.196-7.41,0.196-10.109,0.196c-5.839,0-6.232-0.098-6.919-0.54c-1.178-0.735-1.423-2.109-1.423-3.091
					c0-3.632,2.355-3.632,5.005-3.632c1.374,0,7.312,0.147,8.539,0.099c1.03,0,1.668-0.05,2.649-0.099
					C293.417,14.544,293.221,13.856,293.221,13.12z"/>
			</g>
			<g>
				<path fill="none" stroke="#231815" stroke-width="14.7197" d="M346.8,43.005c-0.687,1.228-1.57,2.602-3.828,2.602
					c-2.11,0-4.76-1.424-4.76-3.926c0-1.374,0.343-2.012,2.993-6.723c1.865-3.288,3.189-6.821,4.367-10.404
					c-2.404,0.05-3.582,0.099-4.662-0.146c-1.472-0.344-2.454-1.865-2.454-3.926c0-3.387,2.355-3.729,3.239-3.877
					c0.442-0.049,5.3-0.147,6.036-0.196c0.147-0.687,0.688-3.681,0.884-4.27c0.49-1.619,1.914-2.306,3.68-2.306
					c1.227,0,4.711,0.245,4.711,3.386c0,1.128-0.196,2.061-0.393,2.896c0.393,0,2.257-0.099,2.65-0.099
					c1.276,0,4.122,0.099,4.122,4.024c0,3.435-2.355,3.778-3.141,3.926c-0.883,0.146-1.718,0.146-5.938,0.294
					C353.425,27.155,350.726,35.743,346.8,43.005z M364.319,27.892c-0.245-3.681,3.582-3.681,4.22-3.681
					c1.424,0,3.975,0.343,4.122,3.337l0.393,9.226c3.583,1.864,5.987,4.023,6.526,4.563c1.325,1.227,1.62,2.307,1.62,3.238
					c0,2.258-1.669,4.613-4.318,4.613c-1.228,0-1.914-0.54-2.307-0.834c-0.393-0.344-1.914-1.963-2.257-2.307
					c-0.099,1.08-0.246,2.355-1.178,3.877c-2.11,3.533-6.969,4.023-9.717,4.023c-8.244,0-12.268-4.367-12.268-9.766
					c0-5.005,3.729-10.157,12.857-10.157c1.03,0,1.767,0.049,2.748,0.147L364.319,27.892z M361.62,40.993
					c-1.815,0-5.202,0.344-5.202,2.994c0,2.895,3.779,2.895,4.417,2.895c2.699,0,4.22-0.883,4.171-5.201
					C364.074,41.288,363.387,40.993,361.62,40.993z M368.195,12.041c2.258,0,8.098,3.533,11.238,5.986
					c1.815,1.473,2.355,2.552,2.355,3.877c0,2.552-2.209,4.417-4.27,4.417c-1.423,0-2.404-0.785-3.337-1.57
					c-2.797-2.355-3.239-2.748-7.9-5.447c-0.884-0.54-2.258-1.325-2.258-3.189c0-1.08,0.54-1.865,0.736-2.16
					C365.153,13.415,366.331,12.041,368.195,12.041z"/>
				<path fill="none" stroke="#231815" stroke-width="14.7197" d="M346.8,43.005c-0.687,1.228-1.57,2.602-3.828,2.602
					c-2.11,0-4.76-1.424-4.76-3.926c0-1.374,0.343-2.012,2.993-6.723c1.865-3.288,3.189-6.821,4.367-10.404
					c-2.404,0.05-3.582,0.099-4.662-0.146c-1.472-0.344-2.454-1.865-2.454-3.926c0-3.387,2.355-3.729,3.239-3.877
					c0.442-0.049,5.3-0.147,6.036-0.196c0.147-0.687,0.688-3.681,0.884-4.27c0.49-1.619,1.914-2.306,3.68-2.306
					c1.227,0,4.711,0.245,4.711,3.386c0,1.128-0.196,2.061-0.393,2.896c0.393,0,2.257-0.099,2.65-0.099
					c1.276,0,4.122,0.099,4.122,4.024c0,3.435-2.355,3.778-3.141,3.926c-0.883,0.146-1.718,0.146-5.938,0.294
					C353.425,27.155,350.726,35.743,346.8,43.005z M364.319,27.892c-0.245-3.681,3.582-3.681,4.22-3.681
					c1.424,0,3.975,0.343,4.122,3.337l0.393,9.226c3.583,1.864,5.987,4.023,6.526,4.563c1.325,1.227,1.62,2.307,1.62,3.238
					c0,2.258-1.669,4.613-4.318,4.613c-1.228,0-1.914-0.54-2.307-0.834c-0.393-0.344-1.914-1.963-2.257-2.307
					c-0.099,1.08-0.246,2.355-1.178,3.877c-2.11,3.533-6.969,4.023-9.717,4.023c-8.244,0-12.268-4.367-12.268-9.766
					c0-5.005,3.729-10.157,12.857-10.157c1.03,0,1.767,0.049,2.748,0.147L364.319,27.892z M361.62,40.993
					c-1.815,0-5.202,0.344-5.202,2.994c0,2.895,3.779,2.895,4.417,2.895c2.699,0,4.22-0.883,4.171-5.201
					C364.074,41.288,363.387,40.993,361.62,40.993z M368.195,12.041c2.258,0,8.098,3.533,11.238,5.986
					c1.815,1.473,2.355,2.552,2.355,3.877c0,2.552-2.209,4.417-4.27,4.417c-1.423,0-2.404-0.785-3.337-1.57
					c-2.797-2.355-3.239-2.748-7.9-5.447c-0.884-0.54-2.258-1.325-2.258-3.189c0-1.08,0.54-1.865,0.736-2.16
					C365.153,13.415,366.331,12.041,368.195,12.041z"/>
			</g>
		</g>
		<g>
			<g>
				<path fill="none" stroke="#E60012" stroke-width="7.3599" d="M233.754,36.037c-2.257,0-3.631-0.736-3.926-3.092
					c-0.344,1.865-0.687,3.632-1.57,6.331c3.141,2.158,4.27,3.386,4.27,5.201c0,2.012-1.718,4.318-4.073,4.318
					c-1.325,0-1.865-0.54-3.681-2.061c-2.306,3.729-6.575,8.538-9.471,8.538c-1.767,0-4.024-1.914-4.024-4.171
					c0-1.325,0.589-2.062,1.62-2.994c4.367-3.926,5.152-5.104,5.889-6.183c-1.473-1.079-2.062-1.423-4.171-2.649
					c-1.227-0.736-2.699-1.57-2.699-3.73c0-0.539,0.098-0.834,0.785-3.336c0.834-3.092,1.521-6.821,1.668-7.999
					c-0.981-0.099-3.435-0.295-3.435-4.073s3.042-3.778,4.318-3.778c0.393-4.368,0.441-4.662,0.589-5.496
					c0.441-2.208,2.208-2.503,3.778-2.503c1.129,0,4.22,0.196,4.22,3.337c0,0.834-0.098,1.767-0.54,4.662H226
					c2.797,0,5.054,0.589,5.054,4.858c0,2.158-0.441,5.839-0.736,8.097c0.834-1.276,2.012-1.521,3.435-1.521h6.036v-2.355
					c0-1.815,0.49-2.993,2.699-3.239c0.785-0.785,2.797-2.797,2.797-3.582c0-0.441-0.393-0.49-1.276-0.49h-8.833
					c-2.257,0-4.023-0.736-4.023-4.172c0-3.827,3.091-3.827,4.023-3.827h15.409c2.699,0,5.889,0.344,5.889,4.956
					c0,2.307-0.785,3.828-2.159,5.496c-1.767,2.159-3.926,3.975-6.184,5.595v1.619h5.595c2.649,0,4.269,0.933,4.269,4.367
					c0,3.877-3.19,3.877-4.269,3.877h-5.595v12.366c0,7.115-2.846,7.164-8.097,7.164c-6.134,0-9.226-0.049-9.226-4.809
					c0-1.865,0.785-2.896,1.325-3.436c0.687-0.687,1.521-0.834,2.846-0.834c0.442,0,2.748,0.196,3.239,0.196
					c0.589,0,1.57,0,1.57-1.619v-9.029H233.754z M222.075,24.211c-0.491,2.601-0.54,2.698-2.012,8.882
					c-0.049,0.147-0.196,0.638-0.196,0.834c0,0.344,0.344,0.54,0.638,0.688c0.294,0.146,0.393,0.196,1.325,0.736
					c0.933-2.994,1.816-7.459,1.816-10.502c0-0.441-0.246-0.638-0.687-0.638H222.075z"/>
				<path fill="none" stroke="#E60012" stroke-width="7.3599" d="M233.754,36.037c-2.257,0-3.631-0.736-3.926-3.092
					c-0.344,1.865-0.687,3.632-1.57,6.331c3.141,2.158,4.27,3.386,4.27,5.201c0,2.012-1.718,4.318-4.073,4.318
					c-1.325,0-1.865-0.54-3.681-2.061c-2.306,3.729-6.575,8.538-9.471,8.538c-1.767,0-4.024-1.914-4.024-4.171
					c0-1.325,0.589-2.062,1.62-2.994c4.367-3.926,5.152-5.104,5.889-6.183c-1.473-1.079-2.062-1.423-4.171-2.649
					c-1.227-0.736-2.699-1.57-2.699-3.73c0-0.539,0.098-0.834,0.785-3.336c0.834-3.092,1.521-6.821,1.668-7.999
					c-0.981-0.099-3.435-0.295-3.435-4.073s3.042-3.778,4.318-3.778c0.393-4.368,0.441-4.662,0.589-5.496
					c0.441-2.208,2.208-2.503,3.778-2.503c1.129,0,4.22,0.196,4.22,3.337c0,0.834-0.098,1.767-0.54,4.662H226
					c2.797,0,5.054,0.589,5.054,4.858c0,2.158-0.441,5.839-0.736,8.097c0.834-1.276,2.012-1.521,3.435-1.521h6.036v-2.355
					c0-1.815,0.49-2.993,2.699-3.239c0.785-0.785,2.797-2.797,2.797-3.582c0-0.441-0.393-0.49-1.276-0.49h-8.833
					c-2.257,0-4.023-0.736-4.023-4.172c0-3.827,3.091-3.827,4.023-3.827h15.409c2.699,0,5.889,0.344,5.889,4.956
					c0,2.307-0.785,3.828-2.159,5.496c-1.767,2.159-3.926,3.975-6.184,5.595v1.619h5.595c2.649,0,4.269,0.933,4.269,4.367
					c0,3.877-3.19,3.877-4.269,3.877h-5.595v12.366c0,7.115-2.846,7.164-8.097,7.164c-6.134,0-9.226-0.049-9.226-4.809
					c0-1.865,0.785-2.896,1.325-3.436c0.687-0.687,1.521-0.834,2.846-0.834c0.442,0,2.748,0.196,3.239,0.196
					c0.589,0,1.57,0,1.57-1.619v-9.029H233.754z M222.075,24.211c-0.491,2.601-0.54,2.698-2.012,8.882
					c-0.049,0.147-0.196,0.638-0.196,0.834c0,0.344,0.344,0.54,0.638,0.688c0.294,0.146,0.393,0.196,1.325,0.736
					c0.933-2.994,1.816-7.459,1.816-10.502c0-0.441-0.246-0.638-0.687-0.638H222.075z"/>
			</g>
			<g>
				<path fill="none" stroke="#E60012" stroke-width="7.3599" d="M293.221,13.12c0-3.141,3.631-3.631,4.858-3.631
					c3.092,0,3.533,1.57,4.564,5.152c2.502-0.147,3.337-0.196,6.379-0.589c0.785-0.099,2.012-0.245,2.748-0.245
					c0.981,0,3.582,0.049,3.582,3.68c0,0.54,0,2.553-2.306,3.239c-1.521,0.441-3.876,0.638-8.244,0.981
					c0.589,1.57,0.687,1.865,0.932,2.307c2.847-0.196,5.595-0.54,7.312-0.785c1.767-0.295,2.012-0.295,2.454-0.295
					c3.288,0,3.288,3.092,3.288,3.632c0,2.061-1.276,3.091-2.896,3.435c-1.767,0.393-6.183,0.785-6.478,0.834
					c0.147,0.295,1.57,2.503,2.404,3.436c1.325,1.521,1.963,2.307,1.963,3.828c0,2.453-2.061,4.269-4.367,4.269
					c-0.294,0-0.834-0.049-2.208-0.49c-3.484-1.178-6.527-2.159-11.876-2.159c-1.128,0-4.662,0-6.526,0.981
					c-0.589,0.294-1.718,1.03-1.718,2.159c0,2.993,6.625,3.189,9.422,3.189c2.748,0,6.331-0.196,11.532-1.374
					c2.503-0.54,2.993-0.687,3.631-0.687c2.159,0,3.583,1.717,3.583,4.072c0,3.189-2.159,3.729-3.681,4.172
					c-3.239,0.883-7.312,1.57-13.396,1.57c-7.459,0-19.875-0.59-19.875-10.158c0-8.098,8.735-10.158,16.243-10.158
					c4.368,0,5.84,0.344,7.018,0.638c-0.638-0.933-0.981-1.472-1.668-2.797c-11.139,0.441-12.366,0.491-15.311,0.491
					c-1.374,0-5.889,0-7.017-0.295c-0.688-0.196-1.963-0.981-1.963-3.288c0-3.141,2.159-3.483,3.778-3.483
					c0.981,0,5.251,0.098,6.085,0.098c3.778,0,7.606,0,11.385-0.245c-0.638-1.521-0.785-1.914-1.03-2.454
					c-7.214,0.196-7.41,0.196-10.109,0.196c-5.839,0-6.232-0.098-6.919-0.54c-1.178-0.735-1.423-2.109-1.423-3.091
					c0-3.632,2.355-3.632,5.005-3.632c1.374,0,7.312,0.147,8.539,0.099c1.03,0,1.668-0.05,2.649-0.099
					C293.417,14.544,293.221,13.856,293.221,13.12z"/>
				<path fill="none" stroke="#E60012" stroke-width="7.3599" d="M293.221,13.12c0-3.141,3.631-3.631,4.858-3.631
					c3.092,0,3.533,1.57,4.564,5.152c2.502-0.147,3.337-0.196,6.379-0.589c0.785-0.099,2.012-0.245,2.748-0.245
					c0.981,0,3.582,0.049,3.582,3.68c0,0.54,0,2.553-2.306,3.239c-1.521,0.441-3.876,0.638-8.244,0.981
					c0.589,1.57,0.687,1.865,0.932,2.307c2.847-0.196,5.595-0.54,7.312-0.785c1.767-0.295,2.012-0.295,2.454-0.295
					c3.288,0,3.288,3.092,3.288,3.632c0,2.061-1.276,3.091-2.896,3.435c-1.767,0.393-6.183,0.785-6.478,0.834
					c0.147,0.295,1.57,2.503,2.404,3.436c1.325,1.521,1.963,2.307,1.963,3.828c0,2.453-2.061,4.269-4.367,4.269
					c-0.294,0-0.834-0.049-2.208-0.49c-3.484-1.178-6.527-2.159-11.876-2.159c-1.128,0-4.662,0-6.526,0.981
					c-0.589,0.294-1.718,1.03-1.718,2.159c0,2.993,6.625,3.189,9.422,3.189c2.748,0,6.331-0.196,11.532-1.374
					c2.503-0.54,2.993-0.687,3.631-0.687c2.159,0,3.583,1.717,3.583,4.072c0,3.189-2.159,3.729-3.681,4.172
					c-3.239,0.883-7.312,1.57-13.396,1.57c-7.459,0-19.875-0.59-19.875-10.158c0-8.098,8.735-10.158,16.243-10.158
					c4.368,0,5.84,0.344,7.018,0.638c-0.638-0.933-0.981-1.472-1.668-2.797c-11.139,0.441-12.366,0.491-15.311,0.491
					c-1.374,0-5.889,0-7.017-0.295c-0.688-0.196-1.963-0.981-1.963-3.288c0-3.141,2.159-3.483,3.778-3.483
					c0.981,0,5.251,0.098,6.085,0.098c3.778,0,7.606,0,11.385-0.245c-0.638-1.521-0.785-1.914-1.03-2.454
					c-7.214,0.196-7.41,0.196-10.109,0.196c-5.839,0-6.232-0.098-6.919-0.54c-1.178-0.735-1.423-2.109-1.423-3.091
					c0-3.632,2.355-3.632,5.005-3.632c1.374,0,7.312,0.147,8.539,0.099c1.03,0,1.668-0.05,2.649-0.099
					C293.417,14.544,293.221,13.856,293.221,13.12z"/>
			</g>
			<g>
				<path fill="none" stroke="#E60012" stroke-width="7.3599" d="M346.8,43.005c-0.687,1.228-1.57,2.602-3.828,2.602
					c-2.11,0-4.76-1.424-4.76-3.926c0-1.374,0.343-2.012,2.993-6.723c1.865-3.288,3.189-6.821,4.367-10.404
					c-2.404,0.05-3.582,0.099-4.662-0.146c-1.472-0.344-2.454-1.865-2.454-3.926c0-3.387,2.355-3.729,3.239-3.877
					c0.442-0.049,5.3-0.147,6.036-0.196c0.147-0.687,0.688-3.681,0.884-4.27c0.49-1.619,1.914-2.306,3.68-2.306
					c1.227,0,4.711,0.245,4.711,3.386c0,1.128-0.196,2.061-0.393,2.896c0.393,0,2.257-0.099,2.65-0.099
					c1.276,0,4.122,0.099,4.122,4.024c0,3.435-2.355,3.778-3.141,3.926c-0.883,0.146-1.718,0.146-5.938,0.294
					C353.425,27.155,350.726,35.743,346.8,43.005z M364.319,27.892c-0.245-3.681,3.582-3.681,4.22-3.681
					c1.424,0,3.975,0.343,4.122,3.337l0.393,9.226c3.583,1.864,5.987,4.023,6.526,4.563c1.325,1.227,1.62,2.307,1.62,3.238
					c0,2.258-1.669,4.613-4.318,4.613c-1.228,0-1.914-0.54-2.307-0.834c-0.393-0.344-1.914-1.963-2.257-2.307
					c-0.099,1.08-0.246,2.355-1.178,3.877c-2.11,3.533-6.969,4.023-9.717,4.023c-8.244,0-12.268-4.367-12.268-9.766
					c0-5.005,3.729-10.157,12.857-10.157c1.03,0,1.767,0.049,2.748,0.147L364.319,27.892z M361.62,40.993
					c-1.815,0-5.202,0.344-5.202,2.994c0,2.895,3.779,2.895,4.417,2.895c2.699,0,4.22-0.883,4.171-5.201
					C364.074,41.288,363.387,40.993,361.62,40.993z M368.195,12.041c2.258,0,8.098,3.533,11.238,5.986
					c1.815,1.473,2.355,2.552,2.355,3.877c0,2.552-2.209,4.417-4.27,4.417c-1.423,0-2.404-0.785-3.337-1.57
					c-2.797-2.355-3.239-2.748-7.9-5.447c-0.884-0.54-2.258-1.325-2.258-3.189c0-1.08,0.54-1.865,0.736-2.16
					C365.153,13.415,366.331,12.041,368.195,12.041z"/>
				<path fill="none" stroke="#E60012" stroke-width="7.3599" d="M346.8,43.005c-0.687,1.228-1.57,2.602-3.828,2.602
					c-2.11,0-4.76-1.424-4.76-3.926c0-1.374,0.343-2.012,2.993-6.723c1.865-3.288,3.189-6.821,4.367-10.404
					c-2.404,0.05-3.582,0.099-4.662-0.146c-1.472-0.344-2.454-1.865-2.454-3.926c0-3.387,2.355-3.729,3.239-3.877
					c0.442-0.049,5.3-0.147,6.036-0.196c0.147-0.687,0.688-3.681,0.884-4.27c0.49-1.619,1.914-2.306,3.68-2.306
					c1.227,0,4.711,0.245,4.711,3.386c0,1.128-0.196,2.061-0.393,2.896c0.393,0,2.257-0.099,2.65-0.099
					c1.276,0,4.122,0.099,4.122,4.024c0,3.435-2.355,3.778-3.141,3.926c-0.883,0.146-1.718,0.146-5.938,0.294
					C353.425,27.155,350.726,35.743,346.8,43.005z M364.319,27.892c-0.245-3.681,3.582-3.681,4.22-3.681
					c1.424,0,3.975,0.343,4.122,3.337l0.393,9.226c3.583,1.864,5.987,4.023,6.526,4.563c1.325,1.227,1.62,2.307,1.62,3.238
					c0,2.258-1.669,4.613-4.318,4.613c-1.228,0-1.914-0.54-2.307-0.834c-0.393-0.344-1.914-1.963-2.257-2.307
					c-0.099,1.08-0.246,2.355-1.178,3.877c-2.11,3.533-6.969,4.023-9.717,4.023c-8.244,0-12.268-4.367-12.268-9.766
					c0-5.005,3.729-10.157,12.857-10.157c1.03,0,1.767,0.049,2.748,0.147L364.319,27.892z M361.62,40.993
					c-1.815,0-5.202,0.344-5.202,2.994c0,2.895,3.779,2.895,4.417,2.895c2.699,0,4.22-0.883,4.171-5.201
					C364.074,41.288,363.387,40.993,361.62,40.993z M368.195,12.041c2.258,0,8.098,3.533,11.238,5.986
					c1.815,1.473,2.355,2.552,2.355,3.877c0,2.552-2.209,4.417-4.27,4.417c-1.423,0-2.404-0.785-3.337-1.57
					c-2.797-2.355-3.239-2.748-7.9-5.447c-0.884-0.54-2.258-1.325-2.258-3.189c0-1.08,0.54-1.865,0.736-2.16
					C365.153,13.415,366.331,12.041,368.195,12.041z"/>
			</g>
		</g>
		<g>
			<g>
				<path fill="#FFFFFF" d="M233.754,36.037c-2.257,0-3.631-0.736-3.926-3.092c-0.344,1.865-0.687,3.632-1.57,6.331
					c3.141,2.158,4.27,3.386,4.27,5.201c0,2.012-1.718,4.318-4.073,4.318c-1.325,0-1.865-0.54-3.681-2.061
					c-2.306,3.729-6.575,8.538-9.471,8.538c-1.767,0-4.024-1.914-4.024-4.171c0-1.325,0.589-2.062,1.62-2.994
					c4.367-3.926,5.152-5.104,5.889-6.183c-1.473-1.079-2.062-1.423-4.171-2.649c-1.227-0.736-2.699-1.57-2.699-3.73
					c0-0.539,0.098-0.834,0.785-3.336c0.834-3.092,1.521-6.821,1.668-7.999c-0.981-0.099-3.435-0.295-3.435-4.073
					s3.042-3.778,4.318-3.778c0.393-4.368,0.441-4.662,0.589-5.496c0.441-2.208,2.208-2.503,3.778-2.503
					c1.129,0,4.22,0.196,4.22,3.337c0,0.834-0.098,1.767-0.54,4.662H226c2.797,0,5.054,0.589,5.054,4.858
					c0,2.158-0.441,5.839-0.736,8.097c0.834-1.276,2.012-1.521,3.435-1.521h6.036v-2.355c0-1.815,0.49-2.993,2.699-3.239
					c0.785-0.785,2.797-2.797,2.797-3.582c0-0.441-0.393-0.49-1.276-0.49h-8.833c-2.257,0-4.023-0.736-4.023-4.172
					c0-3.827,3.091-3.827,4.023-3.827h15.409c2.699,0,5.889,0.344,5.889,4.956c0,2.307-0.785,3.828-2.159,5.496
					c-1.767,2.159-3.926,3.975-6.184,5.595v1.619h5.595c2.649,0,4.269,0.933,4.269,4.367c0,3.877-3.19,3.877-4.269,3.877h-5.595
					v12.366c0,7.115-2.846,7.164-8.097,7.164c-6.134,0-9.226-0.049-9.226-4.809c0-1.865,0.785-2.896,1.325-3.436
					c0.687-0.687,1.521-0.834,2.846-0.834c0.442,0,2.748,0.196,3.239,0.196c0.589,0,1.57,0,1.57-1.619v-9.029H233.754z
					 M222.075,24.211c-0.491,2.601-0.54,2.698-2.012,8.882c-0.049,0.147-0.196,0.638-0.196,0.834c0,0.344,0.344,0.54,0.638,0.688
					c0.294,0.146,0.393,0.196,1.325,0.736c0.933-2.994,1.816-7.459,1.816-10.502c0-0.441-0.246-0.638-0.687-0.638H222.075z"/>
			</g>
			<g>
				<path fill="#FFFFFF" d="M293.221,13.12c0-3.141,3.631-3.631,4.858-3.631c3.092,0,3.533,1.57,4.564,5.152
					c2.502-0.147,3.337-0.196,6.379-0.589c0.785-0.099,2.012-0.245,2.748-0.245c0.981,0,3.582,0.049,3.582,3.68
					c0,0.54,0,2.553-2.306,3.239c-1.521,0.441-3.876,0.638-8.244,0.981c0.589,1.57,0.687,1.865,0.932,2.307
					c2.847-0.196,5.595-0.54,7.312-0.785c1.767-0.295,2.012-0.295,2.454-0.295c3.288,0,3.288,3.092,3.288,3.632
					c0,2.061-1.276,3.091-2.896,3.435c-1.767,0.393-6.183,0.785-6.478,0.834c0.147,0.295,1.57,2.503,2.404,3.436
					c1.325,1.521,1.963,2.307,1.963,3.828c0,2.453-2.061,4.269-4.367,4.269c-0.294,0-0.834-0.049-2.208-0.49
					c-3.484-1.178-6.527-2.159-11.876-2.159c-1.128,0-4.662,0-6.526,0.981c-0.589,0.294-1.718,1.03-1.718,2.159
					c0,2.993,6.625,3.189,9.422,3.189c2.748,0,6.331-0.196,11.532-1.374c2.503-0.54,2.993-0.687,3.631-0.687
					c2.159,0,3.583,1.717,3.583,4.072c0,3.189-2.159,3.729-3.681,4.172c-3.239,0.883-7.312,1.57-13.396,1.57
					c-7.459,0-19.875-0.59-19.875-10.158c0-8.098,8.735-10.158,16.243-10.158c4.368,0,5.84,0.344,7.018,0.638
					c-0.638-0.933-0.981-1.472-1.668-2.797c-11.139,0.441-12.366,0.491-15.311,0.491c-1.374,0-5.889,0-7.017-0.295
					c-0.688-0.196-1.963-0.981-1.963-3.288c0-3.141,2.159-3.483,3.778-3.483c0.981,0,5.251,0.098,6.085,0.098
					c3.778,0,7.606,0,11.385-0.245c-0.638-1.521-0.785-1.914-1.03-2.454c-7.214,0.196-7.41,0.196-10.109,0.196
					c-5.839,0-6.232-0.098-6.919-0.54c-1.178-0.735-1.423-2.109-1.423-3.091c0-3.632,2.355-3.632,5.005-3.632
					c1.374,0,7.312,0.147,8.539,0.099c1.03,0,1.668-0.05,2.649-0.099C293.417,14.544,293.221,13.856,293.221,13.12z"/>
			</g>
			<g>
				<path fill="#FFFFFF" d="M346.8,43.005c-0.687,1.228-1.57,2.602-3.828,2.602c-2.11,0-4.76-1.424-4.76-3.926
					c0-1.374,0.343-2.012,2.993-6.723c1.865-3.288,3.189-6.821,4.367-10.404c-2.404,0.05-3.582,0.099-4.662-0.146
					c-1.472-0.344-2.454-1.865-2.454-3.926c0-3.387,2.355-3.729,3.239-3.877c0.442-0.049,5.3-0.147,6.036-0.196
					c0.147-0.687,0.688-3.681,0.884-4.27c0.49-1.619,1.914-2.306,3.68-2.306c1.227,0,4.711,0.245,4.711,3.386
					c0,1.128-0.196,2.061-0.393,2.896c0.393,0,2.257-0.099,2.65-0.099c1.276,0,4.122,0.099,4.122,4.024
					c0,3.435-2.355,3.778-3.141,3.926c-0.883,0.146-1.718,0.146-5.938,0.294C353.425,27.155,350.726,35.743,346.8,43.005z
					 M364.319,27.892c-0.245-3.681,3.582-3.681,4.22-3.681c1.424,0,3.975,0.343,4.122,3.337l0.393,9.226
					c3.583,1.864,5.987,4.023,6.526,4.563c1.325,1.227,1.62,2.307,1.62,3.238c0,2.258-1.669,4.613-4.318,4.613
					c-1.228,0-1.914-0.54-2.307-0.834c-0.393-0.344-1.914-1.963-2.257-2.307c-0.099,1.08-0.246,2.355-1.178,3.877
					c-2.11,3.533-6.969,4.023-9.717,4.023c-8.244,0-12.268-4.367-12.268-9.766c0-5.005,3.729-10.157,12.857-10.157
					c1.03,0,1.767,0.049,2.748,0.147L364.319,27.892z M361.62,40.993c-1.815,0-5.202,0.344-5.202,2.994
					c0,2.895,3.779,2.895,4.417,2.895c2.699,0,4.22-0.883,4.171-5.201C364.074,41.288,363.387,40.993,361.62,40.993z
					 M368.195,12.041c2.258,0,8.098,3.533,11.238,5.986c1.815,1.473,2.355,2.552,2.355,3.877c0,2.552-2.209,4.417-4.27,4.417
					c-1.423,0-2.404-0.785-3.337-1.57c-2.797-2.355-3.239-2.748-7.9-5.447c-0.884-0.54-2.258-1.325-2.258-3.189
					c0-1.08,0.54-1.865,0.736-2.16C365.153,13.415,366.331,12.041,368.195,12.041z"/>
			</g>
		</g>
	</g>
	<g>
		<g>
			<g>
				<path fill="#231815" d="M229.928,107.68c-2.306,0-4.183-0.53-5.659-1.41c-1.825,0.829-3.943,1.25-6.339,1.25
					c-10.03,0-15.278-7.505-15.278-14.918c0-3.303,0.886-7.319,4.116-10.979c-2.752-1.793-3.836-4.9-3.836-7.698
					c0-1.536,0.475-9.199,9.839-9.199c0.464-0.005,0.882-0.009,1.261-0.012c1.59-3.603,5.13-4.988,8.498-4.988
					c2.596,0,5.295,0.83,7.116,2.877c1.56-1.002,3.37-1.557,5.162-1.557c1.067,0,4.316,0,9.531,4.773
					c3.602,3.33,5.987,6.346,5.987,10.305c0,2.41-0.927,4.613-2.452,6.288c1.156,2.259,1.772,4.863,1.772,7.751
					C249.646,100.64,241.722,107.68,229.928,107.68z"/>
				<path fill="#231815" d="M229.928,107.68c-2.306,0-4.183-0.53-5.659-1.41c-1.825,0.829-3.943,1.25-6.339,1.25
					c-10.03,0-15.278-7.505-15.278-14.918c0-3.303,0.886-7.319,4.116-10.979c-2.752-1.793-3.836-4.9-3.836-7.698
					c0-1.536,0.475-9.199,9.839-9.199c0.464-0.005,0.882-0.009,1.261-0.012c1.59-3.603,5.13-4.988,8.498-4.988
					c2.596,0,5.295,0.83,7.116,2.877c1.56-1.002,3.37-1.557,5.162-1.557c1.067,0,4.316,0,9.531,4.773
					c3.602,3.33,5.987,6.346,5.987,10.305c0,2.41-0.927,4.613-2.452,6.288c1.156,2.259,1.772,4.863,1.772,7.751
					C249.646,100.64,241.722,107.68,229.928,107.68z"/>
			</g>
			<g>
				<path fill="#231815" d="M252.131,106.959c-5.095,0-9.399-4.524-9.399-9.879c0-5.13,3.507-7.079,6.324-8.645
					c4.513-2.502,7.693-5.47,9.88-8.111h-5.445c-5.558,0-9.439-3.849-9.439-9.359c0-5.535,3.882-9.4,9.439-9.4h19.197
					c8.059,0,10.919,5.344,10.919,9.92c0,3.405-1.796,8.019-4.114,12.22c1.868,1.486,3.569,2.954,5.346,4.538
					c1.531,1.369,4.367,3.906,4.367,8.318c0,5.513-4.521,9.998-10.079,9.998c-4.273,0-6.57-2.585-7.805-3.973
					c-1.037-1.172-2.444-2.632-3.89-4.055C263.026,102.396,256.725,106.959,252.131,106.959z"/>
				<path fill="#231815" d="M252.131,106.959c-5.095,0-9.399-4.524-9.399-9.879c0-5.13,3.507-7.079,6.324-8.645
					c4.513-2.502,7.693-5.47,9.88-8.111h-5.445c-5.558,0-9.439-3.849-9.439-9.359c0-5.535,3.882-9.4,9.439-9.4h19.197
					c8.059,0,10.919,5.344,10.919,9.92c0,3.405-1.796,8.019-4.114,12.22c1.868,1.486,3.569,2.954,5.346,4.538
					c1.531,1.369,4.367,3.906,4.367,8.318c0,5.513-4.521,9.998-10.079,9.998c-4.273,0-6.57-2.585-7.805-3.973
					c-1.037-1.172-2.444-2.632-3.89-4.055C263.026,102.396,256.725,106.959,252.131,106.959z"/>
			</g>
			<g>
				<path fill="#231815" d="M292.131,106.959c-5.095,0-9.399-4.524-9.399-9.879c0-5.13,3.507-7.079,6.324-8.645
					c4.513-2.502,7.693-5.47,9.88-8.111h-5.445c-5.558,0-9.439-3.849-9.439-9.359c0-5.535,3.882-9.4,9.439-9.4h19.197
					c8.059,0,10.919,5.344,10.919,9.92c0,3.405-1.796,8.019-4.114,12.22c1.868,1.486,3.569,2.954,5.346,4.538
					c1.531,1.369,4.367,3.906,4.367,8.318c0,5.513-4.521,9.998-10.079,9.998c-4.273,0-6.57-2.585-7.805-3.973
					c-1.037-1.172-2.444-2.632-3.89-4.055C303.026,102.396,296.725,106.959,292.131,106.959z"/>
				<path fill="#231815" d="M292.131,106.959c-5.095,0-9.399-4.524-9.399-9.879c0-5.13,3.507-7.079,6.324-8.645
					c4.513-2.502,7.693-5.47,9.88-8.111h-5.445c-5.558,0-9.439-3.849-9.439-9.359c0-5.535,3.882-9.4,9.439-9.4h19.197
					c8.059,0,10.919,5.344,10.919,9.92c0,3.405-1.796,8.019-4.114,12.22c1.868,1.486,3.569,2.954,5.346,4.538
					c1.531,1.369,4.367,3.906,4.367,8.318c0,5.513-4.521,9.998-10.079,9.998c-4.273,0-6.57-2.585-7.805-3.973
					c-1.037-1.172-2.444-2.632-3.89-4.055C303.026,102.396,296.725,106.959,292.131,106.959z"/>
			</g>
			<g>
				<path fill="#231815" d="M332.611,107.76c-5.156,0-9.68-4.653-9.68-9.959c0-5.007,3.209-6.821,6.606-8.742
					c1.802-1.047,3.709-2.238,5.735-4.084c-1.089-0.737-2.154-1.435-3.036-1.975c-1.38-0.819-5.227-3.104-5.227-8.156
					c0-4.675,3.809-9.68,9.479-9.68c1.953,0,3.879,0.643,6.44,2.147c0.834,0.496,1.642,0.992,2.427,1.485
					c0.152-0.438,0.316-0.915,0.497-1.438l0.162-0.47c1.567-4.589,4.567-6.925,8.912-6.925c5.014,0,10.2,3.396,10.2,9.08
					c0,2.133-0.673,4.112-1.258,5.599c-0.799,2.116-1.564,4.021-2.448,5.919c1.302,1.161,2.531,2.349,3.812,3.747
					c1.879,2.011,2.813,4.188,2.813,6.612c0,5.615-4.598,10.359-10.04,10.359c-2.653,0-5.19-1.13-7.144-3.183l-0.971-1.013
					c-3.16,3.227-6.598,6.002-10.271,8.288C337.682,106.563,335.362,107.76,332.611,107.76z"/>
				<path fill="#231815" d="M332.611,107.76c-5.156,0-9.68-4.653-9.68-9.959c0-5.007,3.209-6.821,6.606-8.742
					c1.802-1.047,3.709-2.238,5.735-4.084c-1.089-0.737-2.154-1.435-3.036-1.975c-1.38-0.819-5.227-3.104-5.227-8.156
					c0-4.675,3.809-9.68,9.479-9.68c1.953,0,3.879,0.643,6.44,2.147c0.834,0.496,1.642,0.992,2.427,1.485
					c0.152-0.438,0.316-0.915,0.497-1.438l0.162-0.47c1.567-4.589,4.567-6.925,8.912-6.925c5.014,0,10.2,3.396,10.2,9.08
					c0,2.133-0.673,4.112-1.258,5.599c-0.799,2.116-1.564,4.021-2.448,5.919c1.302,1.161,2.531,2.349,3.812,3.747
					c1.879,2.011,2.813,4.188,2.813,6.612c0,5.615-4.598,10.359-10.04,10.359c-2.653,0-5.19-1.13-7.144-3.183l-0.971-1.013
					c-3.16,3.227-6.598,6.002-10.271,8.288C337.682,106.563,335.362,107.76,332.611,107.76z"/>
			</g>
			<g>
				<path fill="#231815" d="M376.6,107.975c-0.424,0-0.853-0.026-1.273-0.078c-2.735-0.335-5.186-1.724-6.896-3.91
					c-1.709-2.187-2.466-4.9-2.13-7.64c0.31-2.522,1.512-4.743,3.266-6.36c-0.104-0.604-0.169-1.259-0.188-1.971l-0.249-11.622
					l0.978-7.975c0.771-6.28,5.368-8.517,9.414-8.517c0.526,0,1.078,0.034,1.639,0.104c3.026,0.371,5.36,1.54,6.938,3.475
					c1.104,1.354,2.328,3.733,1.881,7.376l-0.977,7.974l-3.069,11.282c-0.192,0.675-0.413,1.285-0.659,1.838
					c1.291,1.976,1.918,4.397,1.61,6.917C386.246,104.061,381.824,107.975,376.6,107.975z M375.325,96.58
					c-0.188,0.23-0.314,0.514-0.353,0.827c-0.096,0.781,0.42,1.696,1.418,1.819c0.956,0.122,1.713-0.541,1.82-1.419
					c0.037-0.303-0.009-0.607-0.127-0.877c-0.432,0.009-0.87-0.015-1.313-0.068C376.329,96.808,375.839,96.72,375.325,96.58z"/>
				<path fill="#231815" d="M376.6,107.975c-0.424,0-0.853-0.026-1.273-0.078c-2.735-0.335-5.186-1.724-6.896-3.91
					c-1.709-2.187-2.466-4.9-2.13-7.64c0.31-2.522,1.512-4.743,3.266-6.36c-0.104-0.604-0.169-1.259-0.188-1.971l-0.249-11.622
					l0.978-7.975c0.771-6.28,5.368-8.517,9.414-8.517c0.526,0,1.078,0.034,1.639,0.104c3.026,0.371,5.36,1.54,6.938,3.475
					c1.104,1.354,2.328,3.733,1.881,7.376l-0.977,7.974l-3.069,11.282c-0.192,0.675-0.413,1.285-0.659,1.838
					c1.291,1.976,1.918,4.397,1.61,6.917C386.246,104.061,381.824,107.975,376.6,107.975z M375.325,96.58
					c-0.188,0.23-0.314,0.514-0.353,0.827c-0.096,0.781,0.42,1.696,1.418,1.819c0.956,0.122,1.713-0.541,1.82-1.419
					c0.037-0.303-0.009-0.607-0.127-0.877c-0.432,0.009-0.87-0.015-1.313-0.068C376.329,96.808,375.839,96.72,375.325,96.58z"/>
			</g>
		</g>
		<g>
			<g>
				<path fill="#FFFFFF" d="M229.928,104.68c-2.743,0-4.405-0.883-5.409-2.01c-1.714,1.238-3.896,1.85-6.589,1.85
					c-8.061,0-12.278-5.995-12.278-11.918c0-5.226,2.557-9.408,7.613-12.481c-0.339,0.003-0.566,0.003-0.814,0.003
					c-6.049,0-6.52-4.745-6.52-6.199c0-1.864,0.667-6.199,6.839-6.199c1.474-0.015,2.465-0.02,3.221-0.022
					c0.101,0,0.196,0,0.289-0.001c0.66-4.288,4.107-4.977,6.248-4.977c2.043,0,5.284,0.635,6.119,4.484
					c0.185,0.005,0.363,0.014,0.537,0.028c0.311-0.526,0.704-1.005,1.166-1.409c0.533-0.497,2.167-1.783,4.457-1.783
					c2.091,0,4.616,1.341,7.505,3.986c3.099,2.864,5.013,5.212,5.013,8.092c0,2.619-1.494,4.586-3.431,5.632
					c1.787,2.25,2.751,5.091,2.751,8.407C246.646,98.981,240.083,104.68,229.928,104.68z M229.023,98.618
					c0.271,0.062,0.733,0.062,0.905,0.062c3.223,0,10.718-0.83,10.718-8.518c0-6.776-6.285-8.199-11.558-8.199
					c-0.756,0-1.359,0.034-1.882,0.079c0.36-0.026,0.757-0.04,1.242-0.04c8.925,0,10.798,4.567,10.798,8.398
					c0,2.699-1.183,4.522-2.176,5.576c-2.162,2.354-5.443,2.449-7.206,2.5l-0.177,0.004c-0.142,0-0.429,0-0.676,0.019
					C229.015,98.545,229.019,98.585,229.023,98.618z M214.674,86.435c-1.743,1.469-3.022,3.445-3.022,6.167
					c0,0.988,0.303,5.918,6.278,5.918c2.793,0,3.45-0.96,3.843-1.534c1.027-1.463,1.076-3.011,1.076-5.624v-8.677l2.525-0.404
					c0.453-0.073,0.834-0.134,1.226-0.181c-0.074,0.008-0.146,0.016-0.217,0.023l-3.534,0.363v-8.615l3.464-0.176
					c1.525-0.077,2.131-0.109,2.451-0.146c0.003-0.042,0.004-0.091,0.004-0.146c0-0.073-0.002-0.137-0.006-0.19
					c-0.141-0.009-0.296-0.009-0.393-0.009c-0.341,0-1.017,0.02-2.306,0.111l-3.214,0.23v-4.303c0-0.203-0.004-0.373-0.012-0.508
					c-0.18-0.016-0.483-0.014-0.657,0.003c-0.007,0.135-0.011,0.303-0.011,0.505v4.285l-2.882,0.113
					c-1.327,0.052-1.95,0.055-3.271,0.06c-0.748,0.003-1.728,0.007-3.215,0.022c-0.212,0-0.591,0-0.865,0.031
					c-0.003,0.048-0.005,0.104-0.005,0.168c0,0.071,0.002,0.133,0.006,0.186c0.177,0.014,0.388,0.014,0.514,0.014
					c0.763,0,1.366,0,6.651-0.118l3.067-0.069v8.375l0.12-0.057v8.826c0,6.057-3.107,6.961-4.959,6.961
					c-2.987,0-5.24-2.494-5.24-5.801C212.09,90.542,212.611,88.369,214.674,86.435z M228.849,88.005v3.356
					c0,0.376,0,0.759-0.005,1.147c0.269-0.019,0.551-0.028,0.845-0.028c0.755-0.023,2.515-0.074,2.989-0.59
					c0.397-0.422,0.57-0.886,0.57-1.49C233.247,89.255,233.247,88.071,228.849,88.005z M240.606,78.832v-2.229l0,0V78.832z
					 M234.571,70.134c0.023,0.019,0.046,0.037,0.066,0.054c2.887,2.196,3.934,3.444,5.63,5.764c0.145,0.192,0.349,0.467,0.496,0.63
					c0.248-0.062,0.562-0.245,0.562-0.458c0-0.085-0.086-0.913-3.075-3.676c-1.671-1.53-3.071-2.331-3.527-2.407
					C234.728,70.046,234.659,70.08,234.571,70.134z"/>
				<path fill="#FFFFFF" d="M229.928,104.68c-2.743,0-4.405-0.883-5.409-2.01c-1.714,1.238-3.896,1.85-6.589,1.85
					c-8.061,0-12.278-5.995-12.278-11.918c0-5.226,2.557-9.408,7.613-12.481c-0.339,0.003-0.566,0.003-0.814,0.003
					c-6.049,0-6.52-4.745-6.52-6.199c0-1.864,0.667-6.199,6.839-6.199c1.474-0.015,2.465-0.02,3.221-0.022
					c0.101,0,0.196,0,0.289-0.001c0.66-4.288,4.107-4.977,6.248-4.977c2.043,0,5.284,0.635,6.119,4.484
					c0.185,0.005,0.363,0.014,0.537,0.028c0.311-0.526,0.704-1.005,1.166-1.409c0.533-0.497,2.167-1.783,4.457-1.783
					c2.091,0,4.616,1.341,7.505,3.986c3.099,2.864,5.013,5.212,5.013,8.092c0,2.619-1.494,4.586-3.431,5.632
					c1.787,2.25,2.751,5.091,2.751,8.407C246.646,98.981,240.083,104.68,229.928,104.68z M229.023,98.618
					c0.271,0.062,0.733,0.062,0.905,0.062c3.223,0,10.718-0.83,10.718-8.518c0-6.776-6.285-8.199-11.558-8.199
					c-0.756,0-1.359,0.034-1.882,0.079c0.36-0.026,0.757-0.04,1.242-0.04c8.925,0,10.798,4.567,10.798,8.398
					c0,2.699-1.183,4.522-2.176,5.576c-2.162,2.354-5.443,2.449-7.206,2.5l-0.177,0.004c-0.142,0-0.429,0-0.676,0.019
					C229.015,98.545,229.019,98.585,229.023,98.618z M214.674,86.435c-1.743,1.469-3.022,3.445-3.022,6.167
					c0,0.988,0.303,5.918,6.278,5.918c2.793,0,3.45-0.96,3.843-1.534c1.027-1.463,1.076-3.011,1.076-5.624v-8.677l2.525-0.404
					c0.453-0.073,0.834-0.134,1.226-0.181c-0.074,0.008-0.146,0.016-0.217,0.023l-3.534,0.363v-8.615l3.464-0.176
					c1.525-0.077,2.131-0.109,2.451-0.146c0.003-0.042,0.004-0.091,0.004-0.146c0-0.073-0.002-0.137-0.006-0.19
					c-0.141-0.009-0.296-0.009-0.393-0.009c-0.341,0-1.017,0.02-2.306,0.111l-3.214,0.23v-4.303c0-0.203-0.004-0.373-0.012-0.508
					c-0.18-0.016-0.483-0.014-0.657,0.003c-0.007,0.135-0.011,0.303-0.011,0.505v4.285l-2.882,0.113
					c-1.327,0.052-1.95,0.055-3.271,0.06c-0.748,0.003-1.728,0.007-3.215,0.022c-0.212,0-0.591,0-0.865,0.031
					c-0.003,0.048-0.005,0.104-0.005,0.168c0,0.071,0.002,0.133,0.006,0.186c0.177,0.014,0.388,0.014,0.514,0.014
					c0.763,0,1.366,0,6.651-0.118l3.067-0.069v8.375l0.12-0.057v8.826c0,6.057-3.107,6.961-4.959,6.961
					c-2.987,0-5.24-2.494-5.24-5.801C212.09,90.542,212.611,88.369,214.674,86.435z M228.849,88.005v3.356
					c0,0.376,0,0.759-0.005,1.147c0.269-0.019,0.551-0.028,0.845-0.028c0.755-0.023,2.515-0.074,2.989-0.59
					c0.397-0.422,0.57-0.886,0.57-1.49C233.247,89.255,233.247,88.071,228.849,88.005z M240.606,78.832v-2.229l0,0V78.832z
					 M234.571,70.134c0.023,0.019,0.046,0.037,0.066,0.054c2.887,2.196,3.934,3.444,5.63,5.764c0.145,0.192,0.349,0.467,0.496,0.63
					c0.248-0.062,0.562-0.245,0.562-0.458c0-0.085-0.086-0.913-3.075-3.676c-1.671-1.53-3.071-2.331-3.527-2.407
					C234.728,70.046,234.659,70.08,234.571,70.134z"/>
			</g>
			<g>
				<path fill="#FFFFFF" d="M252.131,103.959c-3.469,0-6.399-3.15-6.399-6.879c0-3.365,2.11-4.538,4.782-6.022
					c7.905-4.384,12.104-10.19,14.079-13.733h-11.102c-3.852,0-6.439-2.556-6.439-6.359c0-3.888,2.528-6.4,6.439-6.4h19.197
					c7.147,0,7.919,4.839,7.919,6.92c0,3.314-2.337,8.604-5.037,12.979c2.683,2.015,4.908,3.91,7.273,6.019
					c1.422,1.271,3.363,3.009,3.363,6.079c0,3.793-3.242,6.998-7.079,6.998c-2.926,0-4.512-1.785-5.562-2.966
					c-1.564-1.767-3.945-4.172-6.08-6.166C263.153,98.555,256.15,103.959,252.131,103.959z M251.751,97.271
					c0.066,0.33,0.284,0.604,0.412,0.681c1.833-0.255,8.41-4.712,12.997-9.701l1.968-2.141l2.201,1.9
					c2.687,2.319,6.438,6.017,8.724,8.601c0.842,0.947,0.919,0.947,1.074,0.947c0.489,0,1.079-0.445,1.079-0.998
					c0-0.19,0-0.388-1.359-1.604c-2.866-2.555-5.51-4.776-9.09-7.306l-2.456-1.734l1.74-2.452c3.583-5.05,5.565-10.289,5.565-11.98
					c0-0.414-0.074-0.615-0.1-0.653c-0.063-0.059-0.395-0.267-1.819-0.267h-19.197c-0.195,0-0.328,0.018-0.411,0.034
					c-0.014,0.077-0.028,0.196-0.028,0.366c0,0.146,0.011,0.25,0.022,0.32c0.089,0.02,0.228,0.039,0.417,0.039h14.677
					c3.031,0,3.84,2.162,3.84,3.439c0,1.983-4.841,13.92-18.582,21.54C252.813,96.644,252.136,97.021,251.751,97.271z"/>
				<path fill="#FFFFFF" d="M252.131,103.959c-3.469,0-6.399-3.15-6.399-6.879c0-3.365,2.11-4.538,4.782-6.022
					c7.905-4.384,12.104-10.19,14.079-13.733h-11.102c-3.852,0-6.439-2.556-6.439-6.359c0-3.888,2.528-6.4,6.439-6.4h19.197
					c7.147,0,7.919,4.839,7.919,6.92c0,3.314-2.337,8.604-5.037,12.979c2.683,2.015,4.908,3.91,7.273,6.019
					c1.422,1.271,3.363,3.009,3.363,6.079c0,3.793-3.242,6.998-7.079,6.998c-2.926,0-4.512-1.785-5.562-2.966
					c-1.564-1.767-3.945-4.172-6.08-6.166C263.153,98.555,256.15,103.959,252.131,103.959z M251.751,97.271
					c0.066,0.33,0.284,0.604,0.412,0.681c1.833-0.255,8.41-4.712,12.997-9.701l1.968-2.141l2.201,1.9
					c2.687,2.319,6.438,6.017,8.724,8.601c0.842,0.947,0.919,0.947,1.074,0.947c0.489,0,1.079-0.445,1.079-0.998
					c0-0.19,0-0.388-1.359-1.604c-2.866-2.555-5.51-4.776-9.09-7.306l-2.456-1.734l1.74-2.452c3.583-5.05,5.565-10.289,5.565-11.98
					c0-0.414-0.074-0.615-0.1-0.653c-0.063-0.059-0.395-0.267-1.819-0.267h-19.197c-0.195,0-0.328,0.018-0.411,0.034
					c-0.014,0.077-0.028,0.196-0.028,0.366c0,0.146,0.011,0.25,0.022,0.32c0.089,0.02,0.228,0.039,0.417,0.039h14.677
					c3.031,0,3.84,2.162,3.84,3.439c0,1.983-4.841,13.92-18.582,21.54C252.813,96.644,252.136,97.021,251.751,97.271z"/>
			</g>
			<g>
				<path fill="#FFFFFF" d="M292.131,103.959c-3.469,0-6.399-3.15-6.399-6.879c0-3.365,2.11-4.538,4.782-6.022
					c7.905-4.384,12.104-10.19,14.079-13.733h-11.102c-3.852,0-6.439-2.556-6.439-6.359c0-3.888,2.528-6.4,6.439-6.4h19.197
					c7.147,0,7.919,4.839,7.919,6.92c0,3.314-2.337,8.604-5.037,12.979c2.683,2.015,4.908,3.91,7.273,6.019
					c1.422,1.271,3.363,3.009,3.363,6.079c0,3.793-3.242,6.998-7.079,6.998c-2.926,0-4.512-1.785-5.562-2.966
					c-1.564-1.767-3.945-4.172-6.08-6.166C303.153,98.555,296.15,103.959,292.131,103.959z M291.751,97.271
					c0.066,0.33,0.284,0.604,0.412,0.681c1.833-0.255,8.41-4.712,12.997-9.701l1.968-2.141l2.201,1.9
					c2.687,2.319,6.438,6.017,8.724,8.601c0.842,0.947,0.919,0.947,1.074,0.947c0.489,0,1.079-0.445,1.079-0.998
					c0-0.19,0-0.388-1.359-1.604c-2.866-2.555-5.51-4.776-9.09-7.306l-2.456-1.734l1.74-2.452c3.583-5.05,5.565-10.289,5.565-11.98
					c0-0.414-0.074-0.615-0.1-0.653c-0.063-0.059-0.395-0.267-1.819-0.267h-19.197c-0.195,0-0.328,0.018-0.411,0.034
					c-0.014,0.077-0.028,0.196-0.028,0.366c0,0.146,0.011,0.25,0.022,0.32c0.089,0.02,0.228,0.039,0.417,0.039h14.677
					c3.031,0,3.84,2.162,3.84,3.439c0,1.983-4.841,13.92-18.582,21.54C292.813,96.644,292.136,97.021,291.751,97.271z"/>
				<path fill="#FFFFFF" d="M292.131,103.959c-3.469,0-6.399-3.15-6.399-6.879c0-3.365,2.11-4.538,4.782-6.022
					c7.905-4.384,12.104-10.19,14.079-13.733h-11.102c-3.852,0-6.439-2.556-6.439-6.359c0-3.888,2.528-6.4,6.439-6.4h19.197
					c7.147,0,7.919,4.839,7.919,6.92c0,3.314-2.337,8.604-5.037,12.979c2.683,2.015,4.908,3.91,7.273,6.019
					c1.422,1.271,3.363,3.009,3.363,6.079c0,3.793-3.242,6.998-7.079,6.998c-2.926,0-4.512-1.785-5.562-2.966
					c-1.564-1.767-3.945-4.172-6.08-6.166C303.153,98.555,296.15,103.959,292.131,103.959z M291.751,97.271
					c0.066,0.33,0.284,0.604,0.412,0.681c1.833-0.255,8.41-4.712,12.997-9.701l1.968-2.141l2.201,1.9
					c2.687,2.319,6.438,6.017,8.724,8.601c0.842,0.947,0.919,0.947,1.074,0.947c0.489,0,1.079-0.445,1.079-0.998
					c0-0.19,0-0.388-1.359-1.604c-2.866-2.555-5.51-4.776-9.09-7.306l-2.456-1.734l1.74-2.452c3.583-5.05,5.565-10.289,5.565-11.98
					c0-0.414-0.074-0.615-0.1-0.653c-0.063-0.059-0.395-0.267-1.819-0.267h-19.197c-0.195,0-0.328,0.018-0.411,0.034
					c-0.014,0.077-0.028,0.196-0.028,0.366c0,0.146,0.011,0.25,0.022,0.32c0.089,0.02,0.228,0.039,0.417,0.039h14.677
					c3.031,0,3.84,2.162,3.84,3.439c0,1.983-4.841,13.92-18.582,21.54C292.813,96.644,292.136,97.021,291.751,97.271z"/>
			</g>
			<g>
				<path fill="#FFFFFF" d="M332.611,104.76c-3.823,0-6.68-3.674-6.68-6.959c0-3.257,1.913-4.339,5.083-6.131
					c2.742-1.593,5.681-3.474,8.882-7.137c-1.964-1.395-4.365-3.034-6.092-4.092c-1.303-0.774-3.793-2.253-3.793-5.598
					c0-3.159,2.661-6.68,6.479-6.68c1.399,0,2.825,0.502,4.92,1.734c1.95,1.159,3.767,2.325,5.474,3.463
					c0.501-1.24,1.011-2.719,1.806-5.024l0.162-0.469c0.499-1.461,1.673-4.903,6.075-4.903c3.539,0,7.199,2.274,7.199,6.08
					c0,1.271-0.323,2.658-1.048,4.498c-1.097,2.905-2.072,5.275-3.37,7.774c1.921,1.621,3.579,3.126,5.312,5.019
					c1.395,1.492,2.026,2.913,2.026,4.586c0,3.921-3.289,7.359-7.04,7.359c-1.824,0-3.589-0.8-4.972-2.251l-1.361-1.42
					c-0.809-0.845-1.375-1.436-1.82-1.893c-3.553,4.04-7.518,7.433-11.818,10.108C335.823,104.185,334.205,104.76,332.611,104.76z
					 M331.998,98.046c0.132,0.295,0.431,0.648,0.639,0.713c0.202-0.01,0.787-0.142,2.244-1.036c4.564-2.84,8.731-6.63,12.369-11.255
					l1.989-2.529l2.384,2.161c1.562,1.415,1.883,1.751,4.383,4.359l1.366,1.425c0.119,0.125,0.403,0.397,0.635,0.397
					c0.376,0,1.02-0.651,1.039-1.328c-0.048-0.082-0.167-0.262-0.431-0.543c-2.041-2.229-3.951-3.843-6.634-6.051l-1.965-1.617
					l1.275-2.202c1.553-2.683,2.649-5.079,4.189-9.156c0.37-0.939,0.579-1.641,0.632-2.113c-0.289-0.162-0.911-0.321-1.254-0.305
					c-0.069,0.139-0.175,0.392-0.332,0.849l-0.165,0.478c-1.506,4.37-2.129,6.179-3.641,8.948l-1.593,2.919l-2.74-1.885
					c-2.437-1.675-5.097-3.466-8.032-5.212c-1.395-0.819-1.869-0.897-1.889-0.9c-0.11,0.034-0.344,0.332-0.428,0.574
					c0.133,0.106,0.386,0.284,0.862,0.567c2.835,1.735,7.107,4.749,9.115,6.266l2.383,1.8l-1.79,2.392
					c-4.629,6.186-8.938,8.98-12.614,11.115C333.292,97.274,332.479,97.734,331.998,98.046z"/>
				<path fill="#FFFFFF" d="M332.611,104.76c-3.823,0-6.68-3.674-6.68-6.959c0-3.257,1.913-4.339,5.083-6.131
					c2.742-1.593,5.681-3.474,8.882-7.137c-1.964-1.395-4.365-3.034-6.092-4.092c-1.303-0.774-3.793-2.253-3.793-5.598
					c0-3.159,2.661-6.68,6.479-6.68c1.399,0,2.825,0.502,4.92,1.734c1.95,1.159,3.767,2.325,5.474,3.463
					c0.501-1.24,1.011-2.719,1.806-5.024l0.162-0.469c0.499-1.461,1.673-4.903,6.075-4.903c3.539,0,7.199,2.274,7.199,6.08
					c0,1.271-0.323,2.658-1.048,4.498c-1.097,2.905-2.072,5.275-3.37,7.774c1.921,1.621,3.579,3.126,5.312,5.019
					c1.395,1.492,2.026,2.913,2.026,4.586c0,3.921-3.289,7.359-7.04,7.359c-1.824,0-3.589-0.8-4.972-2.251l-1.361-1.42
					c-0.809-0.845-1.375-1.436-1.82-1.893c-3.553,4.04-7.518,7.433-11.818,10.108C335.823,104.185,334.205,104.76,332.611,104.76z
					 M331.998,98.046c0.132,0.295,0.431,0.648,0.639,0.713c0.202-0.01,0.787-0.142,2.244-1.036c4.564-2.84,8.731-6.63,12.369-11.255
					l1.989-2.529l2.384,2.161c1.562,1.415,1.883,1.751,4.383,4.359l1.366,1.425c0.119,0.125,0.403,0.397,0.635,0.397
					c0.376,0,1.02-0.651,1.039-1.328c-0.048-0.082-0.167-0.262-0.431-0.543c-2.041-2.229-3.951-3.843-6.634-6.051l-1.965-1.617
					l1.275-2.202c1.553-2.683,2.649-5.079,4.189-9.156c0.37-0.939,0.579-1.641,0.632-2.113c-0.289-0.162-0.911-0.321-1.254-0.305
					c-0.069,0.139-0.175,0.392-0.332,0.849l-0.165,0.478c-1.506,4.37-2.129,6.179-3.641,8.948l-1.593,2.919l-2.74-1.885
					c-2.437-1.675-5.097-3.466-8.032-5.212c-1.395-0.819-1.869-0.897-1.889-0.9c-0.11,0.034-0.344,0.332-0.428,0.574
					c0.133,0.106,0.386,0.284,0.862,0.567c2.835,1.735,7.107,4.749,9.115,6.266l2.383,1.8l-1.79,2.392
					c-4.629,6.186-8.938,8.98-12.614,11.115C333.292,97.274,332.479,97.734,331.998,98.046z"/>
			</g>
			<g>
				<path fill="#FFFFFF" d="M376.6,104.975c-0.3,0-0.603-0.019-0.906-0.056c-1.942-0.238-3.683-1.226-4.899-2.781
					c-1.216-1.555-1.754-3.482-1.516-5.427c0.295-2.404,1.732-4.424,3.726-5.539c-0.572-1.211-0.607-2.517-0.627-3.237
					l-0.244-11.391l0.951-7.761c0.651-5.309,4.718-5.881,6.437-5.881c0.405,0,0.834,0.027,1.273,0.081
					c2.264,0.277,3.892,1.061,4.979,2.393c1.07,1.313,1.484,3.033,1.229,5.114l-1.008,7.969l-2.929,10.77
					c-0.2,0.703-0.562,1.976-1.422,3.02c1.646,1.555,2.558,3.842,2.263,6.255C383.452,102.193,380.312,104.975,376.6,104.975z
					 M376.587,96.238c-0.688,0-1.27,0.518-1.354,1.203c-0.059,0.477,0.155,0.832,0.288,1.001c0.132,0.17,0.426,0.463,0.903,0.521
					c0.787,0.087,1.435-0.449,1.525-1.19c0.103-0.838-0.54-1.444-1.193-1.524C376.701,96.242,376.644,96.238,376.587,96.238z
					 M378.141,76.847l0.151,7.067l1.855-6.821l0.898-7.333c0.036-0.293,0.033-0.481,0.024-0.591
					c-0.145-0.062-0.447-0.162-1.006-0.23c-0.403-0.049-0.769-0.036-0.915-0.009c-0.03,0.098-0.072,0.273-0.11,0.584L378.141,76.847
					z"/>
				<path fill="#FFFFFF" d="M376.6,104.975c-0.3,0-0.603-0.019-0.906-0.056c-1.942-0.238-3.683-1.226-4.899-2.781
					c-1.216-1.555-1.754-3.482-1.516-5.427c0.295-2.404,1.732-4.424,3.726-5.539c-0.572-1.211-0.607-2.517-0.627-3.237
					l-0.244-11.391l0.951-7.761c0.651-5.309,4.718-5.881,6.437-5.881c0.405,0,0.834,0.027,1.273,0.081
					c2.264,0.277,3.892,1.061,4.979,2.393c1.07,1.313,1.484,3.033,1.229,5.114l-1.008,7.969l-2.929,10.77
					c-0.2,0.703-0.562,1.976-1.422,3.02c1.646,1.555,2.558,3.842,2.263,6.255C383.452,102.193,380.312,104.975,376.6,104.975z
					 M376.587,96.238c-0.688,0-1.27,0.518-1.354,1.203c-0.059,0.477,0.155,0.832,0.288,1.001c0.132,0.17,0.426,0.463,0.903,0.521
					c0.787,0.087,1.435-0.449,1.525-1.19c0.103-0.838-0.54-1.444-1.193-1.524C376.701,96.242,376.644,96.238,376.587,96.238z
					 M378.141,76.847l0.151,7.067l1.855-6.821l0.898-7.333c0.036-0.293,0.033-0.481,0.024-0.591
					c-0.145-0.062-0.447-0.162-1.006-0.23c-0.403-0.049-0.769-0.036-0.915-0.009c-0.03,0.098-0.072,0.273-0.11,0.584L378.141,76.847
					z"/>
			</g>
		</g>
		<g>
			<g>
				<path fill="#E60012" d="M225.849,79.162c0.76-0.078,1.76-0.199,3.239-0.199c5.279,0,14.558,1.6,14.558,11.199
					c0,7.277-5.519,11.518-13.718,11.518c-1.08,0-3.919,0-3.919-3.32c0-2.84,2.32-2.879,3.68-2.879
					c1.399-0.041,3.839-0.08,5.199-1.561c1.28-1.359,1.36-2.879,1.36-3.52c0-4.119-2.959-5.398-7.798-5.398
					c-1.12,0-1.6,0.08-2.6,0.24v6.119c0,2.639,0,5.039-1.6,7.318c-1.04,1.52-2.679,2.84-6.319,2.84c-6.359,0-9.278-4.52-9.278-8.918
					c0-8,7.879-10.998,10.518-11.998v-3.6c-5.319,0.119-5.919,0.119-6.719,0.119c-1.08,0-3.52,0-3.52-3.199
					c0-3.16,2.4-3.199,3.839-3.199c4.04-0.041,4.359,0,6.399-0.08v-1.4c0-1.559,0.12-3.52,3.359-3.52c3.2,0,3.32,2,3.32,3.52v1.08
					c1.12-0.08,1.959-0.119,2.52-0.119c0.96,0,3.399,0,3.399,3.199c0,2.279-1.36,2.84-1.8,2.959c-0.72,0.199-0.96,0.199-4.119,0.359
					V79.162z M219.29,86.961c-1.12,0.521-4.199,2-4.199,5.279c0,1.721,1,2.801,2.24,2.801c1.64,0,1.959-1.881,1.959-3.961V86.961z
					 M234.807,67.045c1.959,0,4.999,2.76,5.479,3.199c3.159,2.92,4.039,4.48,4.039,5.879c0,2.121-1.959,3.48-3.719,3.48
					c-1.36,0-2.04-0.92-2.759-1.881c-1.52-2.078-2.36-3.119-5.04-5.158c-0.6-0.48-1.439-1.121-1.439-2.4
					c0-0.68,0.32-1.52,0.959-2.08C232.887,67.564,233.807,67.045,234.807,67.045z"/>
			</g>
			<g>
				<path fill="#E60012" d="M253.491,74.324c-1.52,0-3.439-0.6-3.439-3.359c0-2.24,1.24-3.4,3.439-3.4h19.197
					c1.64,0,4.919,0.121,4.919,3.92c0,2.76-2.6,8.758-6.119,13.717c3.68,2.6,6.399,4.881,9.359,7.52
					c1.52,1.359,2.359,2.279,2.359,3.84c0,2.238-1.959,3.998-4.079,3.998c-1.56,0-2.36-0.879-3.32-1.959
					c-2.16-2.439-5.799-6.039-8.438-8.318c-4.559,4.959-12.278,10.678-15.237,10.678c-1.88,0-3.399-1.92-3.399-3.879
					c0-1.6,0.72-2,3.239-3.4c13.198-7.318,17.037-18.436,17.037-18.916c0-0.439-0.44-0.439-0.84-0.439H253.491z"/>
			</g>
			<g>
				<path fill="#E60012" d="M293.491,74.324c-1.52,0-3.439-0.6-3.439-3.359c0-2.24,1.24-3.4,3.439-3.4h19.197
					c1.64,0,4.919,0.121,4.919,3.92c0,2.76-2.6,8.758-6.119,13.717c3.68,2.6,6.399,4.881,9.359,7.52
					c1.52,1.359,2.359,2.279,2.359,3.84c0,2.238-1.959,3.998-4.079,3.998c-1.56,0-2.36-0.879-3.32-1.959
					c-2.16-2.439-5.799-6.039-8.438-8.318c-4.559,4.959-12.278,10.678-15.237,10.678c-1.88,0-3.399-1.92-3.399-3.879
					c0-1.6,0.72-2,3.239-3.4c13.198-7.318,17.037-18.436,17.037-18.916c0-0.439-0.44-0.439-0.84-0.439H293.491z"/>
			</g>
			<g>
				<path fill="#E60012" d="M335.37,77.883c-1.479-0.879-2.359-1.6-2.359-3.039c0-1.561,1.399-3.68,3.479-3.68
					c0.52,0,1.359,0.121,3.399,1.32c2.959,1.76,5.639,3.559,8.198,5.318c1.44-2.639,2-4.318,3.6-8.957
					c0.56-1.641,1.16-2.881,3.239-2.881c1.44,0,4.2,0.801,4.2,3.08c0,0.959-0.32,2.08-0.84,3.398c-1.48,3.92-2.64,6.561-4.399,9.6
					c2.719,2.238,4.759,3.959,6.919,6.318c1.159,1.24,1.239,2,1.239,2.561c0,2.238-1.88,4.359-4.04,4.359c-1.04,0-2-0.48-2.799-1.32
					c-3.799-3.959-3.879-4.08-5.599-5.639c-3.679,4.678-8.079,8.797-13.158,11.957c-1.76,1.08-2.88,1.48-3.839,1.48
					c-1.96,0-3.68-2.121-3.68-3.959c0-1.48,0.52-1.801,3.56-3.52c3.239-1.881,7.319-4.439,11.718-10.318
					C342.249,82.482,338.05,79.523,335.37,77.883z"/>
			</g>
			<g>
				<path fill="#E60012" d="M380.928,98.139c-0.297,2.418-2.492,4.096-4.867,3.803c-2.377-0.291-4.096-2.49-3.805-4.865
					c0.297-2.418,2.491-4.096,4.867-3.805C379.458,93.559,381.229,95.68,380.928,98.139z M380.17,88.441
					c-0.372,1.307-0.754,2.699-2.672,2.465c-1.959-0.24-2.076-1.355-2.122-3.053l-0.239-11.158l0.925-7.547
					c0.174-1.416,0.7-3.637,4.368-3.188c2.96,0.363,3.891,1.746,3.594,4.164l-0.925,7.547L380.17,88.441z"/>
			</g>
		</g>
	</g>
</g>
<g>
	<g>
		<g>
			<path fill="none" stroke="#231815" stroke-width="17" d="M441.578,43.344c1.787-0.188,4.137-0.471,7.613-0.471
				c12.408,0,34.215,3.76,34.215,26.318c0,17.107-12.971,27.07-32.24,27.07c-2.537,0-9.211,0-9.211-7.801
				c0-6.674,5.451-6.768,8.646-6.768c3.291-0.094,9.023-0.188,12.22-3.666c3.008-3.195,3.196-6.768,3.196-8.271
				c0-9.682-6.956-12.689-18.33-12.689c-2.631,0-3.76,0.188-6.109,0.564v14.381c0,6.203,0,11.844-3.76,17.201
				c-2.443,3.572-6.297,6.674-14.851,6.674c-14.944,0-21.807-10.621-21.807-20.961c0-18.799,18.517-25.85,24.72-28.199v-8.459
				c-12.5,0.281-13.91,0.281-15.791,0.281c-2.537,0-8.271,0-8.271-7.52c0-7.424,5.641-7.52,9.023-7.52
				c9.494-0.094,10.246,0,15.039-0.188v-3.289c0-3.666,0.283-8.271,7.896-8.271c7.52,0,7.801,4.699,7.801,8.271v2.537
				c2.633-0.188,4.605-0.281,5.922-0.281c2.256,0,7.99,0,7.99,7.52c0,5.357-3.196,6.674-4.23,6.955
				c-1.691,0.471-2.256,0.471-9.682,0.846V43.344z M426.164,61.672c-2.633,1.223-9.869,4.699-9.869,12.408
				c0,4.041,2.35,6.578,5.264,6.578c3.854,0,4.605-4.416,4.605-9.305V61.672z M462.633,14.863c4.605,0,11.75,6.486,12.877,7.52
				c7.426,6.861,9.494,10.527,9.494,13.816c0,4.982-4.605,8.178-8.742,8.178c-3.195,0-4.793-2.162-6.484-4.418
				c-3.572-4.887-5.547-7.33-11.844-12.125c-1.41-1.127-3.384-2.631-3.384-5.639c0-1.598,0.752-3.572,2.256-4.889
				C458.121,16.086,460.283,14.863,462.633,14.863z"/>
			<path fill="none" stroke="#231815" stroke-width="17" d="M441.578,43.344c1.787-0.188,4.137-0.471,7.613-0.471
				c12.408,0,34.215,3.76,34.215,26.318c0,17.107-12.971,27.07-32.24,27.07c-2.537,0-9.211,0-9.211-7.801
				c0-6.674,5.451-6.768,8.646-6.768c3.291-0.094,9.023-0.188,12.22-3.666c3.008-3.195,3.196-6.768,3.196-8.271
				c0-9.682-6.956-12.689-18.33-12.689c-2.631,0-3.76,0.188-6.109,0.564v14.381c0,6.203,0,11.844-3.76,17.201
				c-2.443,3.572-6.297,6.674-14.851,6.674c-14.944,0-21.807-10.621-21.807-20.961c0-18.799,18.517-25.85,24.72-28.199v-8.459
				c-12.5,0.281-13.91,0.281-15.791,0.281c-2.537,0-8.271,0-8.271-7.52c0-7.424,5.641-7.52,9.023-7.52
				c9.494-0.094,10.246,0,15.039-0.188v-3.289c0-3.666,0.283-8.271,7.896-8.271c7.52,0,7.801,4.699,7.801,8.271v2.537
				c2.633-0.188,4.605-0.281,5.922-0.281c2.256,0,7.99,0,7.99,7.52c0,5.357-3.196,6.674-4.23,6.955
				c-1.691,0.471-2.256,0.471-9.682,0.846V43.344z M426.164,61.672c-2.633,1.223-9.869,4.699-9.869,12.408
				c0,4.041,2.35,6.578,5.264,6.578c3.854,0,4.605-4.416,4.605-9.305V61.672z M462.633,14.863c4.605,0,11.75,6.486,12.877,7.52
				c7.426,6.861,9.494,10.527,9.494,13.816c0,4.982-4.605,8.178-8.742,8.178c-3.195,0-4.793-2.162-6.484-4.418
				c-3.572-4.887-5.547-7.33-11.844-12.125c-1.41-1.127-3.384-2.631-3.384-5.639c0-1.598,0.752-3.572,2.256-4.889
				C458.121,16.086,460.283,14.863,462.633,14.863z"/>
		</g>
		<g>
			<path fill="none" stroke="#231815" stroke-width="17" d="M513.02,53.307v-4.23c0-2.725,0.471-4.322,1.881-5.732
				c-1.881,0-12.031,0.375-13.441,0.375c-2.068,0-8.742,0-8.742-7.613c0-3.102,1.598-5.357,3.479-6.484
				c1.504-0.848,1.879-0.848,10.15-0.941c5.641-9.682,6.486-11.09,8.084-13.723c2.162-3.572,3.947-5.828,7.613-5.828
				c3.479,0,8.46,2.162,8.46,6.957c0,2.537-1.315,5.168-6.016,12.406c8.835-0.188,26.318-0.564,28.856-0.658
				c-2.633-3.102-4.23-4.887-4.23-7.801c0-4.699,4.889-7.145,8.084-7.145c2.443,0,5.17,1.129,13.723,11.563
				c3.291,4.041,8.365,10.434,8.365,14.193c0,4.135-3.854,7.801-7.988,7.801c-3.666,0-5.734-2.82-7.708-5.641h-0.376
				c-0.939,0.096-5.264,0.471-6.203,0.471c2.35,1.598,2.819,3.854,2.819,6.58v5.451h13.63c3.383,0,7.707,0.846,7.707,7.613
				c0,7.52-5.734,7.52-7.707,7.52h-13.63v23.498c0,4.889-1.88,7.709-8.366,7.709c-7.52,0-7.52-5.734-7.52-7.709V68.439h-16.166
				c-0.846,4.795-3.195,15.039-12.689,23.123c-3.195,2.82-10.434,7.52-15.227,7.52c-4.605,0-7.896-4.418-7.896-8.553
				c0-4.324,2.82-5.922,4.7-6.957c8.929-5.264,13.44-8.178,15.134-15.133h-12.973c-3.383,0-7.707-0.846-7.707-7.613
				c0-7.52,5.734-7.52,7.707-7.52H513.02z M543.943,53.307v-5.451c0-3.854,1.035-4.889,1.975-5.922
				c-8.93,0.564-9.117,0.564-19.551,0.939c2.256,1.787,2.537,3.76,2.537,6.393v4.041H543.943z"/>
			<path fill="none" stroke="#231815" stroke-width="17" d="M513.02,53.307v-4.23c0-2.725,0.471-4.322,1.881-5.732
				c-1.881,0-12.031,0.375-13.441,0.375c-2.068,0-8.742,0-8.742-7.613c0-3.102,1.598-5.357,3.479-6.484
				c1.504-0.848,1.879-0.848,10.15-0.941c5.641-9.682,6.486-11.09,8.084-13.723c2.162-3.572,3.947-5.828,7.613-5.828
				c3.479,0,8.46,2.162,8.46,6.957c0,2.537-1.315,5.168-6.016,12.406c8.835-0.188,26.318-0.564,28.856-0.658
				c-2.633-3.102-4.23-4.887-4.23-7.801c0-4.699,4.889-7.145,8.084-7.145c2.443,0,5.17,1.129,13.723,11.563
				c3.291,4.041,8.365,10.434,8.365,14.193c0,4.135-3.854,7.801-7.988,7.801c-3.666,0-5.734-2.82-7.708-5.641h-0.376
				c-0.939,0.096-5.264,0.471-6.203,0.471c2.35,1.598,2.819,3.854,2.819,6.58v5.451h13.63c3.383,0,7.707,0.846,7.707,7.613
				c0,7.52-5.734,7.52-7.707,7.52h-13.63v23.498c0,4.889-1.88,7.709-8.366,7.709c-7.52,0-7.52-5.734-7.52-7.709V68.439h-16.166
				c-0.846,4.795-3.195,15.039-12.689,23.123c-3.195,2.82-10.434,7.52-15.227,7.52c-4.605,0-7.896-4.418-7.896-8.553
				c0-4.324,2.82-5.922,4.7-6.957c8.929-5.264,13.44-8.178,15.134-15.133h-12.973c-3.383,0-7.707-0.846-7.707-7.613
				c0-7.52,5.734-7.52,7.707-7.52H513.02z M543.943,53.307v-5.451c0-3.854,1.035-4.889,1.975-5.922
				c-8.93,0.564-9.117,0.564-19.551,0.939c2.256,1.787,2.537,3.76,2.537,6.393v4.041H543.943z"/>
		</g>
		<g>
			<path fill="none" stroke="#231815" stroke-width="17" d="M597.244,74.832c-2.068,0-7.52-0.189-7.52-6.861
				c0-5.359,2.443-7.615,7.613-7.615h58.559v-4.322c0-1.41-0.846-2.162-2.256-2.162h-59.969c-1.973,0-7.613-0.094-7.613-6.955
				c0-5.453,2.068-7.896,7.613-7.896h28.199V16.932c0-5.17,2.162-7.613,8.082-7.613c5.453,0,8.648,1.221,8.648,7.613V39.02h19.926
				c7.99,0,12.973,2.633,12.973,12.971v31.771c0,10.338-4.982,12.971-12.973,12.971h-65.701c-2.537,0-7.52-0.377-7.52-7.051
				c0-5.639,1.785-8.176,7.52-8.176h60.721c1.41,0,2.162-0.848,2.162-2.256v-4.418H597.244z M607.959,17.59
				c6.393,9.586,6.486,11.184,6.486,12.688c0,5.17-5.828,8.271-9.963,8.271c-4.23,0-5.17-1.691-9.965-9.68
				c-0.563-1.035-3.289-5.264-3.76-6.205c-0.939-1.691-1.033-2.914-1.033-3.57c0-4.982,5.357-7.99,9.398-7.99
				C602.979,11.104,604.764,12.701,607.959,17.59z M670.842,19.094c0,3.289-4.23,9.023-6.861,12.406
				c-4.795,6.393-6.486,7.049-9.117,7.049c-3.949,0-9.588-2.443-9.588-8.082c0-2.35,0.752-3.385,3.666-7.426
				c1.879-2.539,2.256-3.102,5.264-7.896c1.314-2.162,2.818-4.135,6.391-4.135C664.826,11.01,670.842,14.018,670.842,19.094z"/>
			<path fill="none" stroke="#231815" stroke-width="17" d="M597.244,74.832c-2.068,0-7.52-0.189-7.52-6.861
				c0-5.359,2.443-7.615,7.613-7.615h58.559v-4.322c0-1.41-0.846-2.162-2.256-2.162h-59.969c-1.973,0-7.613-0.094-7.613-6.955
				c0-5.453,2.068-7.896,7.613-7.896h28.199V16.932c0-5.17,2.162-7.613,8.082-7.613c5.453,0,8.648,1.221,8.648,7.613V39.02h19.926
				c7.99,0,12.973,2.633,12.973,12.971v31.771c0,10.338-4.982,12.971-12.973,12.971h-65.701c-2.537,0-7.52-0.377-7.52-7.051
				c0-5.639,1.785-8.176,7.52-8.176h60.721c1.41,0,2.162-0.848,2.162-2.256v-4.418H597.244z M607.959,17.59
				c6.393,9.586,6.486,11.184,6.486,12.688c0,5.17-5.828,8.271-9.963,8.271c-4.23,0-5.17-1.691-9.965-9.68
				c-0.563-1.035-3.289-5.264-3.76-6.205c-0.939-1.691-1.033-2.914-1.033-3.57c0-4.982,5.357-7.99,9.398-7.99
				C602.979,11.104,604.764,12.701,607.959,17.59z M670.842,19.094c0,3.289-4.23,9.023-6.861,12.406
				c-4.795,6.393-6.486,7.049-9.117,7.049c-3.949,0-9.588-2.443-9.588-8.082c0-2.35,0.752-3.385,3.666-7.426
				c1.879-2.539,2.256-3.102,5.264-7.896c1.314-2.162,2.818-4.135,6.391-4.135C664.826,11.01,670.842,14.018,670.842,19.094z"/>
		</g>
	</g>
	<g>
		<g>
			<path fill="none" stroke="#E60012" stroke-width="10" d="M441.578,43.344c1.787-0.188,4.137-0.471,7.613-0.471
				c12.408,0,34.215,3.76,34.215,26.318c0,17.107-12.971,27.07-32.24,27.07c-2.537,0-9.211,0-9.211-7.801
				c0-6.674,5.451-6.768,8.646-6.768c3.291-0.094,9.023-0.188,12.22-3.666c3.008-3.195,3.196-6.768,3.196-8.271
				c0-9.682-6.956-12.689-18.33-12.689c-2.631,0-3.76,0.188-6.109,0.564v14.381c0,6.203,0,11.844-3.76,17.201
				c-2.443,3.572-6.297,6.674-14.851,6.674c-14.944,0-21.807-10.621-21.807-20.961c0-18.799,18.517-25.85,24.72-28.199v-8.459
				c-12.5,0.281-13.91,0.281-15.791,0.281c-2.537,0-8.271,0-8.271-7.52c0-7.424,5.641-7.52,9.023-7.52
				c9.494-0.094,10.246,0,15.039-0.188v-3.289c0-3.666,0.283-8.271,7.896-8.271c7.52,0,7.801,4.699,7.801,8.271v2.537
				c2.633-0.188,4.605-0.281,5.922-0.281c2.256,0,7.99,0,7.99,7.52c0,5.357-3.196,6.674-4.23,6.955
				c-1.691,0.471-2.256,0.471-9.682,0.846V43.344z M426.164,61.672c-2.633,1.223-9.869,4.699-9.869,12.408
				c0,4.041,2.35,6.578,5.264,6.578c3.854,0,4.605-4.416,4.605-9.305V61.672z M462.633,14.863c4.605,0,11.75,6.486,12.877,7.52
				c7.426,6.861,9.494,10.527,9.494,13.816c0,4.982-4.605,8.178-8.742,8.178c-3.195,0-4.793-2.162-6.484-4.418
				c-3.572-4.887-5.547-7.33-11.844-12.125c-1.41-1.127-3.384-2.631-3.384-5.639c0-1.598,0.752-3.572,2.256-4.889
				C458.121,16.086,460.283,14.863,462.633,14.863z"/>
			<path fill="none" stroke="#E60012" stroke-width="10" d="M441.578,43.344c1.787-0.188,4.137-0.471,7.613-0.471
				c12.408,0,34.215,3.76,34.215,26.318c0,17.107-12.971,27.07-32.24,27.07c-2.537,0-9.211,0-9.211-7.801
				c0-6.674,5.451-6.768,8.646-6.768c3.291-0.094,9.023-0.188,12.22-3.666c3.008-3.195,3.196-6.768,3.196-8.271
				c0-9.682-6.956-12.689-18.33-12.689c-2.631,0-3.76,0.188-6.109,0.564v14.381c0,6.203,0,11.844-3.76,17.201
				c-2.443,3.572-6.297,6.674-14.851,6.674c-14.944,0-21.807-10.621-21.807-20.961c0-18.799,18.517-25.85,24.72-28.199v-8.459
				c-12.5,0.281-13.91,0.281-15.791,0.281c-2.537,0-8.271,0-8.271-7.52c0-7.424,5.641-7.52,9.023-7.52
				c9.494-0.094,10.246,0,15.039-0.188v-3.289c0-3.666,0.283-8.271,7.896-8.271c7.52,0,7.801,4.699,7.801,8.271v2.537
				c2.633-0.188,4.605-0.281,5.922-0.281c2.256,0,7.99,0,7.99,7.52c0,5.357-3.196,6.674-4.23,6.955
				c-1.691,0.471-2.256,0.471-9.682,0.846V43.344z M426.164,61.672c-2.633,1.223-9.869,4.699-9.869,12.408
				c0,4.041,2.35,6.578,5.264,6.578c3.854,0,4.605-4.416,4.605-9.305V61.672z M462.633,14.863c4.605,0,11.75,6.486,12.877,7.52
				c7.426,6.861,9.494,10.527,9.494,13.816c0,4.982-4.605,8.178-8.742,8.178c-3.195,0-4.793-2.162-6.484-4.418
				c-3.572-4.887-5.547-7.33-11.844-12.125c-1.41-1.127-3.384-2.631-3.384-5.639c0-1.598,0.752-3.572,2.256-4.889
				C458.121,16.086,460.283,14.863,462.633,14.863z"/>
		</g>
		<g>
			<path fill="none" stroke="#E60012" stroke-width="10" d="M513.02,53.307v-4.23c0-2.725,0.471-4.322,1.881-5.732
				c-1.881,0-12.031,0.375-13.441,0.375c-2.068,0-8.742,0-8.742-7.613c0-3.102,1.598-5.357,3.479-6.484
				c1.504-0.848,1.879-0.848,10.15-0.941c5.641-9.682,6.486-11.09,8.084-13.723c2.162-3.572,3.947-5.828,7.613-5.828
				c3.479,0,8.46,2.162,8.46,6.957c0,2.537-1.315,5.168-6.016,12.406c8.835-0.188,26.318-0.564,28.856-0.658
				c-2.633-3.102-4.23-4.887-4.23-7.801c0-4.699,4.889-7.145,8.084-7.145c2.443,0,5.17,1.129,13.723,11.563
				c3.291,4.041,8.365,10.434,8.365,14.193c0,4.135-3.854,7.801-7.988,7.801c-3.666,0-5.734-2.82-7.708-5.641h-0.376
				c-0.939,0.096-5.264,0.471-6.203,0.471c2.35,1.598,2.819,3.854,2.819,6.58v5.451h13.63c3.383,0,7.707,0.846,7.707,7.613
				c0,7.52-5.734,7.52-7.707,7.52h-13.63v23.498c0,4.889-1.88,7.709-8.366,7.709c-7.52,0-7.52-5.734-7.52-7.709V68.439h-16.166
				c-0.846,4.795-3.195,15.039-12.689,23.123c-3.195,2.82-10.434,7.52-15.227,7.52c-4.605,0-7.896-4.418-7.896-8.553
				c0-4.324,2.82-5.922,4.7-6.957c8.929-5.264,13.44-8.178,15.134-15.133h-12.973c-3.383,0-7.707-0.846-7.707-7.613
				c0-7.52,5.734-7.52,7.707-7.52H513.02z M543.943,53.307v-5.451c0-3.854,1.035-4.889,1.975-5.922
				c-8.93,0.564-9.117,0.564-19.551,0.939c2.256,1.787,2.537,3.76,2.537,6.393v4.041H543.943z"/>
			<path fill="none" stroke="#E60012" stroke-width="10" d="M513.02,53.307v-4.23c0-2.725,0.471-4.322,1.881-5.732
				c-1.881,0-12.031,0.375-13.441,0.375c-2.068,0-8.742,0-8.742-7.613c0-3.102,1.598-5.357,3.479-6.484
				c1.504-0.848,1.879-0.848,10.15-0.941c5.641-9.682,6.486-11.09,8.084-13.723c2.162-3.572,3.947-5.828,7.613-5.828
				c3.479,0,8.46,2.162,8.46,6.957c0,2.537-1.315,5.168-6.016,12.406c8.835-0.188,26.318-0.564,28.856-0.658
				c-2.633-3.102-4.23-4.887-4.23-7.801c0-4.699,4.889-7.145,8.084-7.145c2.443,0,5.17,1.129,13.723,11.563
				c3.291,4.041,8.365,10.434,8.365,14.193c0,4.135-3.854,7.801-7.988,7.801c-3.666,0-5.734-2.82-7.708-5.641h-0.376
				c-0.939,0.096-5.264,0.471-6.203,0.471c2.35,1.598,2.819,3.854,2.819,6.58v5.451h13.63c3.383,0,7.707,0.846,7.707,7.613
				c0,7.52-5.734,7.52-7.707,7.52h-13.63v23.498c0,4.889-1.88,7.709-8.366,7.709c-7.52,0-7.52-5.734-7.52-7.709V68.439h-16.166
				c-0.846,4.795-3.195,15.039-12.689,23.123c-3.195,2.82-10.434,7.52-15.227,7.52c-4.605,0-7.896-4.418-7.896-8.553
				c0-4.324,2.82-5.922,4.7-6.957c8.929-5.264,13.44-8.178,15.134-15.133h-12.973c-3.383,0-7.707-0.846-7.707-7.613
				c0-7.52,5.734-7.52,7.707-7.52H513.02z M543.943,53.307v-5.451c0-3.854,1.035-4.889,1.975-5.922
				c-8.93,0.564-9.117,0.564-19.551,0.939c2.256,1.787,2.537,3.76,2.537,6.393v4.041H543.943z"/>
		</g>
		<g>
			<path fill="none" stroke="#E60012" stroke-width="10" d="M597.244,74.832c-2.068,0-7.52-0.189-7.52-6.861
				c0-5.359,2.443-7.615,7.613-7.615h58.559v-4.322c0-1.41-0.846-2.162-2.256-2.162h-59.969c-1.973,0-7.613-0.094-7.613-6.955
				c0-5.453,2.068-7.896,7.613-7.896h28.199V16.932c0-5.17,2.162-7.613,8.082-7.613c5.453,0,8.648,1.221,8.648,7.613V39.02h19.926
				c7.99,0,12.973,2.633,12.973,12.971v31.771c0,10.338-4.982,12.971-12.973,12.971h-65.701c-2.537,0-7.52-0.377-7.52-7.051
				c0-5.639,1.785-8.176,7.52-8.176h60.721c1.41,0,2.162-0.848,2.162-2.256v-4.418H597.244z M607.959,17.59
				c6.393,9.586,6.486,11.184,6.486,12.688c0,5.17-5.828,8.271-9.963,8.271c-4.23,0-5.17-1.691-9.965-9.68
				c-0.563-1.035-3.289-5.264-3.76-6.205c-0.939-1.691-1.033-2.914-1.033-3.57c0-4.982,5.357-7.99,9.398-7.99
				C602.979,11.104,604.764,12.701,607.959,17.59z M670.842,19.094c0,3.289-4.23,9.023-6.861,12.406
				c-4.795,6.393-6.486,7.049-9.117,7.049c-3.949,0-9.588-2.443-9.588-8.082c0-2.35,0.752-3.385,3.666-7.426
				c1.879-2.539,2.256-3.102,5.264-7.896c1.314-2.162,2.818-4.135,6.391-4.135C664.826,11.01,670.842,14.018,670.842,19.094z"/>
			<path fill="none" stroke="#E60012" stroke-width="10" d="M597.244,74.832c-2.068,0-7.52-0.189-7.52-6.861
				c0-5.359,2.443-7.615,7.613-7.615h58.559v-4.322c0-1.41-0.846-2.162-2.256-2.162h-59.969c-1.973,0-7.613-0.094-7.613-6.955
				c0-5.453,2.068-7.896,7.613-7.896h28.199V16.932c0-5.17,2.162-7.613,8.082-7.613c5.453,0,8.648,1.221,8.648,7.613V39.02h19.926
				c7.99,0,12.973,2.633,12.973,12.971v31.771c0,10.338-4.982,12.971-12.973,12.971h-65.701c-2.537,0-7.52-0.377-7.52-7.051
				c0-5.639,1.785-8.176,7.52-8.176h60.721c1.41,0,2.162-0.848,2.162-2.256v-4.418H597.244z M607.959,17.59
				c6.393,9.586,6.486,11.184,6.486,12.688c0,5.17-5.828,8.271-9.963,8.271c-4.23,0-5.17-1.691-9.965-9.68
				c-0.563-1.035-3.289-5.264-3.76-6.205c-0.939-1.691-1.033-2.914-1.033-3.57c0-4.982,5.357-7.99,9.398-7.99
				C602.979,11.104,604.764,12.701,607.959,17.59z M670.842,19.094c0,3.289-4.23,9.023-6.861,12.406
				c-4.795,6.393-6.486,7.049-9.117,7.049c-3.949,0-9.588-2.443-9.588-8.082c0-2.35,0.752-3.385,3.666-7.426
				c1.879-2.539,2.256-3.102,5.264-7.896c1.314-2.162,2.818-4.135,6.391-4.135C664.826,11.01,670.842,14.018,670.842,19.094z"/>
		</g>
	</g>
	<g>
		<g>
			<path fill="#FFFFFF" d="M441.578,43.344c1.787-0.188,4.137-0.471,7.613-0.471c12.408,0,34.215,3.76,34.215,26.318
				c0,17.107-12.971,27.07-32.24,27.07c-2.537,0-9.211,0-9.211-7.801c0-6.674,5.451-6.768,8.646-6.768
				c3.291-0.094,9.023-0.188,12.22-3.666c3.008-3.195,3.196-6.768,3.196-8.271c0-9.682-6.956-12.689-18.33-12.689
				c-2.631,0-3.76,0.188-6.109,0.564v14.381c0,6.203,0,11.844-3.76,17.201c-2.443,3.572-6.297,6.674-14.851,6.674
				c-14.944,0-21.807-10.621-21.807-20.961c0-18.799,18.517-25.85,24.72-28.199v-8.459c-12.5,0.281-13.91,0.281-15.791,0.281
				c-2.537,0-8.271,0-8.271-7.52c0-7.424,5.641-7.52,9.023-7.52c9.494-0.094,10.246,0,15.039-0.188v-3.289
				c0-3.666,0.283-8.271,7.896-8.271c7.52,0,7.801,4.699,7.801,8.271v2.537c2.633-0.188,4.605-0.281,5.922-0.281
				c2.256,0,7.99,0,7.99,7.52c0,5.357-3.196,6.674-4.23,6.955c-1.691,0.471-2.256,0.471-9.682,0.846V43.344z M426.164,61.672
				c-2.633,1.223-9.869,4.699-9.869,12.408c0,4.041,2.35,6.578,5.264,6.578c3.854,0,4.605-4.416,4.605-9.305V61.672z
				 M462.633,14.863c4.605,0,11.75,6.486,12.877,7.52c7.426,6.861,9.494,10.527,9.494,13.816c0,4.982-4.605,8.178-8.742,8.178
				c-3.195,0-4.793-2.162-6.484-4.418c-3.572-4.887-5.547-7.33-11.844-12.125c-1.41-1.127-3.384-2.631-3.384-5.639
				c0-1.598,0.752-3.572,2.256-4.889C458.121,16.086,460.283,14.863,462.633,14.863z"/>
		</g>
		<g>
			<path fill="#FFFFFF" d="M513.02,53.307v-4.23c0-2.725,0.471-4.322,1.881-5.732c-1.881,0-12.031,0.375-13.441,0.375
				c-2.068,0-8.742,0-8.742-7.613c0-3.102,1.598-5.357,3.479-6.484c1.504-0.848,1.879-0.848,10.15-0.941
				c5.641-9.682,6.486-11.09,8.084-13.723c2.162-3.572,3.947-5.828,7.613-5.828c3.479,0,8.46,2.162,8.46,6.957
				c0,2.537-1.315,5.168-6.016,12.406c8.835-0.188,26.318-0.564,28.856-0.658c-2.633-3.102-4.23-4.887-4.23-7.801
				c0-4.699,4.889-7.145,8.084-7.145c2.443,0,5.17,1.129,13.723,11.563c3.291,4.041,8.365,10.434,8.365,14.193
				c0,4.135-3.854,7.801-7.988,7.801c-3.666,0-5.734-2.82-7.708-5.641h-0.376c-0.939,0.096-5.264,0.471-6.203,0.471
				c2.35,1.598,2.819,3.854,2.819,6.58v5.451h13.63c3.383,0,7.707,0.846,7.707,7.613c0,7.52-5.734,7.52-7.707,7.52h-13.63v23.498
				c0,4.889-1.88,7.709-8.366,7.709c-7.52,0-7.52-5.734-7.52-7.709V68.439h-16.166c-0.846,4.795-3.195,15.039-12.689,23.123
				c-3.195,2.82-10.434,7.52-15.227,7.52c-4.605,0-7.896-4.418-7.896-8.553c0-4.324,2.82-5.922,4.7-6.957
				c8.929-5.264,13.44-8.178,15.134-15.133h-12.973c-3.383,0-7.707-0.846-7.707-7.613c0-7.52,5.734-7.52,7.707-7.52H513.02z
				 M543.943,53.307v-5.451c0-3.854,1.035-4.889,1.975-5.922c-8.93,0.564-9.117,0.564-19.551,0.939
				c2.256,1.787,2.537,3.76,2.537,6.393v4.041H543.943z"/>
		</g>
		<g>
			<path fill="#FFFFFF" d="M597.244,74.832c-2.068,0-7.52-0.189-7.52-6.861c0-5.359,2.443-7.615,7.613-7.615h58.559v-4.322
				c0-1.41-0.846-2.162-2.256-2.162h-59.969c-1.973,0-7.613-0.094-7.613-6.955c0-5.453,2.068-7.896,7.613-7.896h28.199V16.932
				c0-5.17,2.162-7.613,8.082-7.613c5.453,0,8.648,1.221,8.648,7.613V39.02h19.926c7.99,0,12.973,2.633,12.973,12.971v31.771
				c0,10.338-4.982,12.971-12.973,12.971h-65.701c-2.537,0-7.52-0.377-7.52-7.051c0-5.639,1.785-8.176,7.52-8.176h60.721
				c1.41,0,2.162-0.848,2.162-2.256v-4.418H597.244z M607.959,17.59c6.393,9.586,6.486,11.184,6.486,12.688
				c0,5.17-5.828,8.271-9.963,8.271c-4.23,0-5.17-1.691-9.965-9.68c-0.563-1.035-3.289-5.264-3.76-6.205
				c-0.939-1.691-1.033-2.914-1.033-3.57c0-4.982,5.357-7.99,9.398-7.99C602.979,11.104,604.764,12.701,607.959,17.59z
				 M670.842,19.094c0,3.289-4.23,9.023-6.861,12.406c-4.795,6.393-6.486,7.049-9.117,7.049c-3.949,0-9.588-2.443-9.588-8.082
				c0-2.35,0.752-3.385,3.666-7.426c1.879-2.539,2.256-3.102,5.264-7.896c1.314-2.162,2.818-4.135,6.391-4.135
				C664.826,11.01,670.842,14.018,670.842,19.094z"/>
		</g>
	</g>
</g>
</svg>
